<?xml version="1.0" encoding="UTF-8"?>
<svg width="512pt" height="512pt" version="1.1" viewBox="0 0 512 512" xmlns="http://www.w3.org/2000/svg" fill="currentColor">
 <path d="m252.74 364.12c1.8125 0.066406 3.5977 0.097656 5.3867 0.097656 59.188 0 94.594-33.23 94.719-88.895 0.085938-38.102-14.527-55.465-27.414-70.789-11.555-13.738-21.531-25.602-21.781-50.781-0.94922-95.875-56.234-114.68-58.582-115.44-2.2188-0.71875-4.6289 0.16016-5.8789 2.125-1.25 1.9609-1.0195 4.5195 0.55859 6.2266 22.215 24.039 10.727 46.488-2.582 72.488-11.961 23.371-24.324 47.539-10.562 73.727 14.402 27.414 10.695 41.191 7.207 46.973-3.3438 5.5352-8.6367 7.4961-12.156 7.4961-5.7305 0-9.957-1.9219-12.934-5.8789-10.902-14.473-3.4766-51.789 0.30859-64.945 0.66406-2.3086-0.36719-4.7734-2.4844-5.918-2.125-1.1484-4.7461-0.66016-6.3125 1.1562-40.105 46.465-54.062 100.37-36.43 140.69 13.91 31.836 45.5 50.18 88.938 51.664z"/>
 <path d="m378.5 444.52c-2.3867-4.9297-6.543-8.6328-11.711-10.418l-48.398-16.824 48.406-16.824c10.66-3.7188 16.324-15.41 12.617-26.082-2.8672-8.2227-10.633-13.758-19.332-13.758-2.293 0-4.5625 0.38281-6.7344 1.1484l-97.344 33.824-97.336-33.824c-2.1719-0.75391-4.4336-1.1406-6.7227-1.1406-8.7148 0-16.492 5.5312-19.355 13.758-3.7031 10.664 1.957 22.359 12.621 26.074l48.398 16.824-48.398 16.824c-5.168 1.793-9.3281 5.4883-11.715 10.418-2.3789 4.9258-2.707 10.48-0.91016 15.648 2.8633 8.2266 10.633 13.762 19.344 13.762 2.3008 0 4.5625-0.37891 6.7227-1.1367l97.352-33.84 97.336 33.832c2.1641 0.75391 4.4297 1.1367 6.7227 1.1367 8.7109 0 16.488-5.5312 19.344-13.762 1.7969-5.1602 1.4805-10.715-0.90625-15.641z"/>
</svg>
