<?xml version="1.0" encoding="UTF-8"?>
<svg width="512pt" height="512pt" version="1.1" viewBox="0 0 512 512" xmlns="http://www.w3.org/2000/svg" fill="currentColor">
 <path d="m386.52 398.36-96.641-15.301c-2.5586-0.42188-5.1992 0.23828-7.2617 1.8008-2.0781 1.5586-3.4414 3.8984-3.7617 6.4805-1.5 11.898-3.1602 23.48-4.8008 33.781-2.2188 13.961 1.8789 28 11.539 39.5 9.3203 11.121 22.781 18.539 37.898 20.941 3.5 0.55859 6.9805 0.82031 10.379 0.82031 27.082 0 50.301-16.941 55.082-41.719 1.6406-8.418 3.1797-19.059 4.9609-31.379l0.57813-4.0586c0.76172-5.1992-2.8008-10.039-8-10.859z"/>
 <path d="m412.46 178.68c-11.441-20.199-27.82-33.32-44.898-36.039-17.84-2.8203-33.52 1.7383-46.48 13.602-36.32 33.219-40.922 116.5-37.918 160.48 0.51953 7.3984 0.51953 16.379 0 27.441-0.21875 4.8789 3.2617 9.1602 8.0781 9.9219l100.08 15.84c0.5 0.078125 1.0195 0.12109 1.5195 0.12109 4.5 0 8.5-3.1602 9.3984-7.7188 3.0781-15.379 6.2617-27 9.6992-35.559 31.641-78.66 10.898-129.8 0.5-148.12z"/>
 <path d="m112.76 278.86 97.598-6.8203c2.5781-0.19922 5.1602 0.69922 7.0781 2.4414 1.9414 1.7383 3.0781 4.1797 3.1797 6.7812 0.46094 11.98 1.1016 23.66 1.8203 34.078 0.98047 14.121-4.3203 27.719-14.922 38.34-10.262 10.262-24.301 16.5-39.582 17.559-3.5391 0.23828-7.0195 0.19922-10.398-0.078125-26.98-2.3594-48.641-21.262-51.242-46.359-0.89844-8.5391-1.5-19.262-2.2188-31.699l-0.23828-4.1016c-0.30078-5.2383 3.6602-9.7578 8.9219-10.141z"/>
 <path d="m106.06 57.738c13.16-19.121 30.621-30.781 47.879-31.98 18.02-1.2383 33.238 4.6602 45.121 17.602 33.281 36.262 30.621 119.62 23.781 163.18-1.1602 7.3398-1.9414 16.281-2.3984 27.34-0.19922 4.8789-4.0391 8.8398-8.9219 9.1797l-101.08 7.0586c-0.51953 0.039062-1.0195 0.039062-1.5195-0.019532-4.4805-0.39844-8.1797-3.8984-8.6992-8.5-1.7383-15.582-3.8789-27.441-6.5586-36.281-24.66-81.121 0.46094-130.24 12.398-147.6z"/>
</svg>
