<svg width="512pt" height="512pt" version="1.1" viewBox="0 0 512 512" fill="currentColor" xmlns="http://www.w3.org/2000/svg">
 <path d="m307.34 156.12c-0.89844-2.3203-2.2812-5.5195-3.8594-9.0391 8.2188-17.199 23.398-48.262 36.621-71.301 3.6211-6.3398 12.602-6.6406 16.602-0.53906 9.6211 14.66 26.121 42.082 43.98 80.977-20.602 26.602-42.281 55.5-57.02 77.621-11.398-23.34-30.961-63.82-36.32-77.699zm-130.54 52.68c2.3594-5.6016 11.68-27.84 22.398-53.477-19.941-32.262-43.32-61.523-57.379-78.199-5.2617-6.2188-15.34-3.6602-16.98 4.3203-7.7617 38.102-14.641 94.68-17.578 120.3 17.379 17.121 38.359 37.898 50.922 50.379 5.9805-13.82 14.66-33.961 18.602-43.32zm295.02 40.699c-1.8984 7-8.1016 43.539-11.102 61.879-0.23828 1.4414-1.0586 2.6992-2.2617 3.5391-9.0781 6.2617-33.379 16.602-34.422 17.039-0.66016 0.28125-1.3789 0.42188-2.0781 0.42188-0.53906 0-1.0586-0.23828-1.5781-0.39844-7.1016 22.359-14.199 44.039-18.98 58.543-3.9219 11.84-12.898 21.18-24.559 25.602-27.941 10.621-84 27.98-145.12 24.641-55.102-3-88.621-15.84-105.82-24.859-8.9414-4.6797-15.699-12.539-19.18-22-3.3008-8.9219-8.0391-21.859-13.281-36.238-0.57812 0.21875-1.2188 0.33984-1.8203 0.33984-0.87891 0-1.7383-0.19922-2.5195-0.64062-9.7812-5.2188-22.879-10.039-23-10.082-1.3398-0.48047-2.4219-1.4805-3-2.7812-3.3008-7.1211-20.68-48.219-21.441-49.98-0.37891-0.89844-0.5-1.8984-0.35938-2.8594 1.7383-11.52 12.16-35.559 12.602-36.578 0.60156-1.3594 1.7383-2.4219 3.1602-2.8984 0.17969-0.058594 0.37891 0.10156 0.55859 0.039062-1.9805-11.219-10.699-47.961-17.34-75.539-2.2812-9.4609 9.1992-16.039 16.199-9.3008 5.9805 5.7383 12.262 11.781 17.801 17.078 17.398 16.621 87.438 86.262 87.438 86.262s18.559-42.738 24.879-57.777c4.8398-11.48 39-93.16 54.84-131.06 3.1992-7.6406 13.82-8.0586 17.602-0.69922 12.34 24.059 32.859 64.641 38.301 78.762 7.9219 20.559 45.102 95.719 45.102 95.719 19.5-33.441 73.16-101.8 103.18-139.3 6.1211-7.6406 18.398-2.5 17.238 7.2188-3.1992 26.961-8.1211 65.398-13.379 97.238 1.1211 0.17969 2.2188 0.57813 3.0586 1.4414 12.941 13.621 18.461 22.738 18.68 23.121 0.71875 1.2383 0.94141 2.7188 0.55859 4.1211zm-377.22 80.02c-2.4414-8.1016-12.918-42.578-16.418-52.98-2.6797-2.0586-9.5-7.1602-16.82-11.66-3.2383 7.9219-7.8594 19.961-9.2812 26.941 2.9414 6.9414 15.559 36.699 19.801 46.219 3.3594 1.2812 10.141 3.9609 16.84 7.1602 1.8008-4.7812 4.3594-11.559 5.8789-15.699zm201.48-16.48s-1.3008-39.582-3.8594-50.18c0 0-26.898-25.941-35.219-30.898 0 0-25.32 25.719-34.398 38.281 0 0 3.9414 39.219 6 57.461 0 0 29.922 20.121 38.859 25.66 0 0 24.262-30.719 28.621-40.301zm164.86-63.938c-1.8398-2.6992-5.9414-8.3594-12.762-15.879-3.5 2.8789-8.7812 7.3789-13.16 11.66-1.8789 6.7812-10.262 36.898-13.52 47.879 0.67969 4 2.9414 16.84 4.6016 26.641 7-3.1211 18.219-8.3008 24.461-12.102 1.6016-9.7383 7.6992-46.262 10.379-58.199z"/>
</svg>
