<svg width="512pt" height="512pt" version="1.1" fill="currentColor" viewBox="0 0 512 512" xmlns="http://www.w3.org/2000/svg">
 <path d="m409.6 10.238h-61.441c-8.4805 0-15.359 6.8789-15.359 15.359v30.719h-30.719v-30.719c0-8.4805-6.8789-15.359-15.359-15.359h-61.441c-8.4805 0-15.359 6.8789-15.359 15.359v30.719h-30.719v-30.719c0-8.4805-6.8789-15.359-15.359-15.359h-61.441c-8.4805 0-15.359 6.8789-15.359 15.359v107.52c0 3.5195 1.2188 6.9414 3.4414 9.6797l46.48 57.199v286.4c0 8.4805 6.8789 15.359 15.359 15.359h207.36c8.4805 0 15.359-6.8789 15.359-15.359v-286.38l46.48-57.199c2.2188-2.7617 3.4414-6.1797 3.4414-9.6992v-107.52c0-8.4805-6.8789-15.359-15.359-15.359zm-134.4 460.8h-38.398v-72.961c0-10.602 8.6016-19.199 19.199-19.199 10.602 0 19.199 8.6016 19.199 19.199zm69.121 0h-38.398v-72.961c0-27.578-22.34-49.922-49.922-49.922-27.578 0-49.922 22.34-49.922 49.922v72.961h-38.398v-261.12h176.64zm49.922-353.28h-276.48v-76.801h30.719v30.719c0 8.4805 6.8789 15.359 15.359 15.359h61.441c8.4805 0 15.359-6.8789 15.359-15.359v-30.719h30.719v30.719c0 8.4805 6.8789 15.359 15.359 15.359h61.441c8.4805 0 15.359-6.8789 15.359-15.359v-30.719h30.719zm-138.24 168.96c8.4805 0 15.359-6.8789 15.359-15.359v-15.359c0-8.4805-6.8789-15.359-15.359-15.359-8.4805 0-15.359 6.8789-15.359 15.359v15.359c0 8.4805 6.8789 15.359 15.359 15.359z"/>
</svg>
