<svg width="512pt" height="512pt" version="1.1" fill="#DC143C" viewBox="0 0 512 512" xmlns="http://www.w3.org/2000/svg">
 <path d="m361.8 120.86c4.1016-1.4219 6.8398-5.2812 6.8398-9.6211 0-4.3398-2.7188-8.2188-6.8008-9.6602-17.539-6.2617-36.02-9.4414-54.641-9.418-58.543 0-112.62 31.219-141.88 81.922-29.281 50.699-29.281 113.14 0 163.84 29.262 50.699 83.34 81.922 141.88 81.922 18.621 0.019531 37.102-3.1602 54.641-9.418 4.0781-1.4414 6.8008-5.3203 6.8008-9.6602s-2.7383-8.1992-6.8398-9.6406c-37.5-13.238-67.801-41.48-83.66-77.941-15.859-36.48-15.859-77.879 0-114.36 15.859-36.461 46.16-64.703 83.66-77.961zm-116.04 135.14c0.039062 58.543 31.281 112.6 81.941 141.9-41.16 5.918-82.863-6.3203-114.28-33.559-31.441-27.219-49.48-66.758-49.48-108.34 0-41.578 18.039-81.121 49.48-108.34 31.418-27.238 73.117-39.48 114.28-33.559-50.66 29.301-81.898 83.359-81.941 141.9z"/>
</svg>
