<svg id="svg2" xmlns="http://www.w3.org/2000/svg" version="1.1" viewBox="0 0 779.99999 539.99997" preserveAspectRatio="none">
<g id="layer1">
<path id="path4140" d="m16.199 0l3.801 3.8008 3.801-3.8008h-7.602zm40 0l3.801 3.8008 3.801-3.8008h-7.602zm40 0l3.801 3.8008 3.8-3.8008h-7.601zm40.001 0l3.8 3.8008 3.8-3.8008h-7.6zm40 0l3.8 3.8008 3.8-3.8008h-7.6zm40 0l3.8 3.8008 3.8-3.8008h-7.6zm40 0l3.8 3.8008 3.8-3.8008h-7.6zm40 0l3.8 3.8008 3.8-3.8008h-7.6zm40 0l3.8 3.8008 3.8-3.8008h-7.6zm40 0l3.8 3.8008 3.8-3.8008h-7.6zm40 0l3.8 3.8008 3.8-3.8008h-7.6zm40 0l3.8 3.8008 3.8-3.8008h-7.6zm40 0l3.8 3.8008 3.8-3.8008h-7.6zm40 0l3.8 3.8008 3.8-3.8008h-7.6zm40 0l3.8 3.8008 3.8-3.8008h-7.6zm40 0l3.8 3.8008 3.8-3.8008h-7.6zm40 0l3.8 3.8008 3.8-3.8008h-7.6zm40 0l3.8 3.8008 3.8-3.8008h-7.6zm40 0l3.8 3.8008 3.8-3.8008h-7.6zm40 0l3.8 3.8008v-3.8008h-3.8zm-776.2 15.6v8.8l4.4004-4.4-4.4004-4.4zm40 0l-4.4 4.4 4.4 4.4 4.4-4.4-4.4-4.4zm40 0l-4.4 4.4 4.4 4.4 4.4-4.4-4.4-4.4zm40 0l-4.4 4.4 4.4 4.4 4.4-4.4-4.4-4.4zm40 0l-4.4 4.4 4.4 4.4 4.4-4.4-4.4-4.4zm40 0l-4.4 4.4 4.4 4.4 4.4-4.4-4.4-4.4zm40 0l-4.4 4.4 4.4 4.4 4.4-4.4-4.4-4.4zm40 0l-4.4 4.4 4.4 4.4 4.4-4.4-4.4-4.4zm40 0l-4.4 4.4 4.4 4.4 4.4-4.4-4.4-4.4zm40 0l-4.4 4.4 4.4 4.4 4.4-4.4-4.4-4.4zm40 0l-4.4 4.4 4.4 4.4 4.4-4.4-4.4-4.4zm40 0l-4.4 4.4 4.4 4.4 4.4-4.4-4.4-4.4zm40 0l-4.4 4.4 4.4 4.4 4.4-4.4-4.4-4.4zm40 0l-4.4 4.4 4.4 4.4 4.4-4.4-4.4-4.4zm40 0l-4.4 4.4 4.4 4.4 4.4-4.4-4.4-4.4zm40 0l-4.4 4.4 4.4 4.4 4.4-4.4-4.4-4.4zm40 0l-4.4 4.4 4.4 4.4 4.4-4.4-4.4-4.4zm40 0l-4.4 4.4 4.4 4.4 4.4-4.4-4.4-4.4zm40 0l-4.4 4.4 4.4 4.4 4.4-4.4-4.4-4.4zm40 0l-4.4 4.4 4.4 4.4 4.4-4.4-4.4-4.4zm-740 19.4l-5 5 5 5 5-5-5-5zm40 0l-5 5 5 5 5-5-5-5zm40 0l-5 5 5 5 5-5-5-5zm40 0l-5 5 5 5 5-5-5-5zm40 0l-5 5 5 5 5-5-5-5zm40 0l-5 5 5 5 5-5-5-5zm40 0l-5 5 5 5 5-5-5-5zm40 0l-5 5 5 5 5-5-5-5zm40 0l-5 5 5 5 5-5-5-5zm40 0l-5 5 5 5 5-5-5-5zm40 0l-5 5 5 5 5-5-5-5zm40 0l-5 5 5 5 5-5-5-5zm40 0l-5 5 5 5 5-5-5-5zm40 0l-5 5 5 5 5-5-5-5zm40 0l-5 5 5 5 5-5-5-5zm40 0l-5 5 5 5 5-5-5-5zm40 0l-5 5 5 5 5-5-5-5zm40 0l-5 5 5 5 5-5-5-5zm40 0l-5 5 5 5 5-5-5-5zm40 0l-5 5 5 5v-10zm-780 19.4v11.2l5.5996-5.6-5.5996-5.6zm40 0l-5.6 5.6 5.6 5.6 5.6-5.6-5.6-5.6zm40 0l-5.6 5.6 5.6 5.6 5.6-5.6-5.6-5.6zm40 0l-5.6 5.6 5.6 5.6 5.6-5.6-5.6-5.6zm40 0l-5.6 5.6 5.6 5.6 5.6-5.6-5.6-5.6zm40 0l-5.6 5.6 5.6 5.6 5.6-5.6-5.6-5.6zm40 0l-5.6 5.6 5.6 5.6 5.6-5.6-5.6-5.6zm40 0l-5.6 5.6 5.6 5.6 5.6-5.6-5.6-5.6zm40 0l-5.6 5.6 5.6 5.6 5.6-5.6-5.6-5.6zm40 0l-5.6 5.6 5.6 5.6 5.6-5.6-5.6-5.6zm40 0l-5.6 5.6 5.6 5.6 5.6-5.6-5.6-5.6zm40 0l-5.6 5.6 5.6 5.6 5.6-5.6-5.6-5.6zm40 0l-5.6 5.6 5.6 5.6 5.6-5.6-5.6-5.6zm40 0l-5.6 5.6 5.6 5.6 5.6-5.6-5.6-5.6zm40 0l-5.6 5.6 5.6 5.6 5.6-5.6-5.6-5.6zm40 0l-5.6 5.6 5.6 5.6 5.6-5.6-5.6-5.6zm40 0l-5.6 5.6 5.6 5.6 5.6-5.6-5.6-5.6zm40 0l-5.6 5.6 5.6 5.6 5.6-5.6-5.6-5.6zm40 0l-5.6 5.6 5.6 5.6 5.6-5.6-5.6-5.6zm40 0l-5.6 5.6 5.6 5.6 5.6-5.6-5.6-5.6zm-740 19.401l-6.199 6.199 6.199 6.199 6.199-6.199-6.199-6.199zm40 0l-6.199 6.199 6.199 6.199 6.199-6.199-6.199-6.199zm40 0l-6.199 6.199 6.199 6.199 6.2-6.199-6.2-6.199zm40 0l-6.2 6.199 6.2 6.199 6.2-6.199-6.2-6.199zm40 0l-6.2 6.199 6.2 6.199 6.2-6.199-6.2-6.199zm40 0l-6.2 6.199 6.2 6.199 6.2-6.199-6.2-6.199zm40 0l-6.2 6.199 6.2 6.199 6.2-6.199-6.2-6.199zm40 0l-6.2 6.199 6.2 6.199 6.2-6.199-6.2-6.199zm40 0l-6.2 6.199 6.2 6.199 6.2-6.199-6.2-6.199zm40 0l-6.2 6.199 6.2 6.199 6.2-6.199-6.2-6.199zm40 0l-6.2 6.199 6.2 6.199 6.2-6.199-6.2-6.199zm40 0l-6.2 6.199 6.2 6.199 6.2-6.199-6.2-6.199zm40 0l-6.2 6.199 6.2 6.199 6.2-6.199-6.2-6.199zm40 0l-6.2 6.199 6.2 6.199 6.2-6.199-6.2-6.199zm40 0l-6.2 6.199 6.2 6.199 6.2-6.199-6.2-6.199zm40 0l-6.2 6.199 6.2 6.199 6.2-6.199-6.2-6.199zm40 0l-6.2 6.199 6.2 6.199 6.2-6.199-6.2-6.199zm40 0l-6.2 6.199 6.2 6.199 6.2-6.199-6.2-6.199zm40 0l-6.2 6.199 6.2 6.199 6.2-6.199-6.2-6.199zm40 0l-6.2 6.199 6.2 6.199v-12.398zm-780 19.398v13.601l6.8008-6.8-6.8008-6.801zm40 0l-6.801 6.801 6.801 6.8 6.801-6.8-6.801-6.801zm40 0l-6.801 6.801 6.801 6.8 6.801-6.8-6.801-6.801zm40 0l-6.8 6.801 6.8 6.8 6.8-6.8-6.8-6.801zm40 0l-6.8 6.801 6.8 6.8 6.8-6.8-6.8-6.801zm40 0l-6.8 6.801 6.8 6.8 6.8-6.8-6.8-6.801zm40 0l-6.8 6.801 6.8 6.8 6.8-6.8-6.8-6.801zm40 0l-6.8 6.801 6.8 6.8 6.8-6.8-6.8-6.801zm40 0l-6.8 6.801 6.8 6.8 6.8-6.8-6.8-6.801zm40 0l-6.8 6.801 6.8 6.8 6.8-6.8-6.8-6.801zm40 0l-6.8 6.801 6.8 6.8 6.8-6.8-6.8-6.801zm40 0l-6.8 6.801 6.8 6.8 6.8-6.8-6.8-6.801zm40 0l-6.8 6.801 6.8 6.8 6.8-6.8-6.8-6.801zm40 0l-6.8 6.801 6.8 6.8 6.8-6.8-6.8-6.801zm40 0l-6.8 6.801 6.8 6.8 6.8-6.8-6.8-6.801zm40 0l-6.8 6.801 6.8 6.8 6.8-6.8-6.8-6.801zm40 0l-6.8 6.801 6.8 6.8 6.8-6.8-6.8-6.801zm40 0l-6.8 6.801 6.8 6.8 6.8-6.8-6.8-6.801zm40 0l-6.8 6.801 6.8 6.8 6.8-6.8-6.8-6.801zm40 0l-6.8 6.801 6.8 6.8 6.8-6.8-6.8-6.801zm-740 19.401l-7.4 7.4 7.4 7.4 7.4-7.4-7.4-7.4zm40 0l-7.4 7.4 7.4 7.4 7.4-7.4-7.4-7.4zm40 0l-7.4 7.4 7.4 7.4 7.4-7.4-7.4-7.4zm40 0l-7.4 7.4 7.4 7.4 7.4-7.4-7.4-7.4zm40 0l-7.4 7.4 7.4 7.4 7.4-7.4-7.4-7.4zm40 0l-7.4 7.4 7.4 7.4 7.4-7.4-7.4-7.4zm40 0l-7.4 7.4 7.4 7.4 7.4-7.4-7.4-7.4zm40 0l-7.4 7.4 7.4 7.4 7.4-7.4-7.4-7.4zm40 0l-7.4 7.4 7.4 7.4 7.4-7.4-7.4-7.4zm40 0l-7.4 7.4 7.4 7.4 7.4-7.4-7.4-7.4zm40 0l-7.4 7.4 7.4 7.4 7.4-7.4-7.4-7.4zm40 0l-7.4 7.4 7.4 7.4 7.4-7.4-7.4-7.4zm40 0l-7.4 7.4 7.4 7.4 7.4-7.4-7.4-7.4zm40 0l-7.4 7.4 7.4 7.4 7.4-7.4-7.4-7.4zm40 0l-7.4 7.4 7.4 7.4 7.4-7.4-7.4-7.4zm40 0l-7.4 7.4 7.4 7.4 7.4-7.4-7.4-7.4zm40 0l-7.4 7.4 7.4 7.4 7.4-7.4-7.4-7.4zm40 0l-7.4 7.4 7.4 7.4 7.4-7.4-7.4-7.4zm40 0l-7.4 7.4 7.4 7.4 7.4-7.4-7.4-7.4zm40 0l-7.4 7.4 7.4 7.4v-14.8zm-780 19.4v16l8-8-8-8zm40 0l-8 8 8 8 8-8-8-8zm40 0l-8 8 8 8 8-8-8-8zm40 0l-8 8 8 8 8-8-8-8zm40 0l-8 8 8 8 8-8-8-8zm40 0l-8 8 8 8 8-8-8-8zm40 0l-8 8 8 8 8-8-8-8zm40 0l-8 8 8 8 8-8-8-8zm40 0l-8 8 8 8 8-8-8-8zm40 0l-8 8 8 8 8-8-8-8zm40 0l-8 8 8 8 8-8-8-8zm40 0l-8 8 8 8 8-8-8-8zm40 0l-8 8 8 8 8-8-8-8zm40 0l-8 8 8 8 8-8-8-8zm40 0l-8 8 8 8 8-8-8-8zm40 0l-8 8 8 8 8-8-8-8zm40 0l-8 8 8 8 8-8-8-8zm40 0l-8 8 8 8 8-8-8-8zm40 0l-8 8 8 8 8-8-8-8zm40 0l-8 8 8 8 8-8-8-8zm-740 19.4l-8.6 8.6 8.6 8.6 8.6-8.6-8.6-8.6zm40 0l-8.6 8.6 8.6 8.6 8.6-8.6-8.6-8.6zm40 0l-8.6 8.6 8.6 8.6 8.6-8.6-8.6-8.6zm40 0l-8.6 8.6 8.6 8.6 8.6-8.6-8.6-8.6zm40 0l-8.6 8.6 8.6 8.6 8.6-8.6-8.6-8.6zm40 0l-8.6 8.6 8.6 8.6 8.6-8.6-8.6-8.6zm40 0l-8.6 8.6 8.6 8.6 8.6-8.6-8.6-8.6zm40 0l-8.6 8.6 8.6 8.6 8.6-8.6-8.6-8.6zm40 0l-8.6 8.6 8.6 8.6 8.6-8.6-8.6-8.6zm40 0l-8.6 8.6 8.6 8.6 8.6-8.6-8.6-8.6zm40 0l-8.6 8.6 8.6 8.6 8.6-8.6-8.6-8.6zm40 0l-8.6 8.6 8.6 8.6 8.6-8.6-8.6-8.6zm40 0l-8.6 8.6 8.6 8.6 8.6-8.6-8.6-8.6zm40 0l-8.6 8.6 8.6 8.6 8.6-8.6-8.6-8.6zm40 0l-8.6 8.6 8.6 8.6 8.6-8.6-8.6-8.6zm40 0l-8.6 8.6 8.6 8.6 8.6-8.6-8.6-8.6zm40 0l-8.6 8.6 8.6 8.6 8.6-8.6-8.6-8.6zm40 0l-8.6 8.6 8.6 8.6 8.6-8.6-8.6-8.6zm40 0l-8.6 8.6 8.6 8.6 8.6-8.6-8.6-8.6zm40 0l-8.6 8.6 8.6 8.6v-17.2zm-780 19.4v18.4l9.1992-9.2-9.1992-9.2zm40 0l-9.199 9.2 9.199 9.2 9.199-9.2-9.199-9.2zm40 0l-9.199 9.2 9.199 9.2 9.199-9.2-9.199-9.2zm40 0l-9.2 9.2 9.2 9.2 9.2-9.2-9.2-9.2zm40 0l-9.2 9.2 9.2 9.2 9.2-9.2-9.2-9.2zm40 0l-9.2 9.2 9.2 9.2 9.2-9.2-9.2-9.2zm40 0l-9.2 9.2 9.2 9.2 9.2-9.2-9.2-9.2zm40 0l-9.2 9.2 9.2 9.2 9.2-9.2-9.2-9.2zm40 0l-9.2 9.2 9.2 9.2 9.2-9.2-9.2-9.2zm40 0l-9.2 9.2 9.2 9.2 9.2-9.2-9.2-9.2zm40 0l-9.2 9.2 9.2 9.2 9.2-9.2-9.2-9.2zm40 0l-9.2 9.2 9.2 9.2 9.2-9.2-9.2-9.2zm40 0l-9.2 9.2 9.2 9.2 9.2-9.2-9.2-9.2zm40 0l-9.2 9.2 9.2 9.2 9.2-9.2-9.2-9.2zm40 0l-9.2 9.2 9.2 9.2 9.2-9.2-9.2-9.2zm40 0l-9.2 9.2 9.2 9.2 9.2-9.2-9.2-9.2zm40 0l-9.2 9.2 9.2 9.2 9.2-9.2-9.2-9.2zm40 0l-9.2 9.2 9.2 9.2 9.2-9.2-9.2-9.2zm40 0l-9.2 9.2 9.2 9.2 9.2-9.2-9.2-9.2zm40 0l-9.2 9.2 9.2 9.2 9.2-9.2-9.2-9.2zm-740 19.4l-9.801 9.8 9.801 9.8 9.801-9.8-9.801-9.8zm40 0l-9.801 9.8 9.801 9.8 9.801-9.8-9.801-9.8zm40 0l-9.801 9.8 9.801 9.8 9.8-9.8-9.8-9.8zm40 0l-9.8 9.8 9.8 9.8 9.8-9.8-9.8-9.8zm40 0l-9.8 9.8 9.8 9.8 9.8-9.8-9.8-9.8zm40 0l-9.8 9.8 9.8 9.8 9.8-9.8-9.8-9.8zm40 0l-9.8 9.8 9.8 9.8 9.8-9.8-9.8-9.8zm40 0l-9.8 9.8 9.8 9.8 9.8-9.8-9.8-9.8zm40 0l-9.8 9.8 9.8 9.8 9.8-9.8-9.8-9.8zm40 0l-9.8 9.8 9.8 9.8 9.8-9.8-9.8-9.8zm40 0l-9.8 9.8 9.8 9.8 9.8-9.8-9.8-9.8zm40 0l-9.8 9.8 9.8 9.8 9.8-9.8-9.8-9.8zm40 0l-9.8 9.8 9.8 9.8 9.8-9.8-9.8-9.8zm40 0l-9.8 9.8 9.8 9.8 9.8-9.8-9.8-9.8zm40 0l-9.8 9.8 9.8 9.8 9.8-9.8-9.8-9.8zm40 0l-9.8 9.8 9.8 9.8 9.8-9.8-9.8-9.8zm40 0l-9.8 9.8 9.8 9.8 9.8-9.8-9.8-9.8zm40 0l-9.8 9.8 9.8 9.8 9.8-9.8-9.8-9.8zm40 0l-9.8 9.8 9.8 9.8 9.8-9.8-9.8-9.8zm40 0l-9.8 9.8 9.8 9.8v-19.6zm-780 19.4v20.8l10.4-10.4-10.4-10.4zm40 0l-10.4 10.4 10.4 10.4 10.4-10.4-10.4-10.4zm40 0l-10.4 10.4 10.4 10.4 10.4-10.4-10.4-10.4zm40 0l-10.4 10.4 10.4 10.4 10.4-10.4-10.4-10.4zm40 0l-10.4 10.4 10.4 10.4 10.4-10.4-10.4-10.4zm40 0l-10.4 10.4 10.4 10.4 10.4-10.4-10.4-10.4zm40 0l-10.4 10.4 10.4 10.4 10.4-10.4-10.4-10.4zm40 0l-10.4 10.4 10.4 10.4 10.4-10.4-10.4-10.4zm40 0l-10.4 10.4 10.4 10.4 10.4-10.4-10.4-10.4zm40 0l-10.4 10.4 10.4 10.4 10.4-10.4-10.4-10.4zm40 0l-10.4 10.4 10.4 10.4 10.4-10.4-10.4-10.4zm40 0l-10.4 10.4 10.4 10.4 10.4-10.4-10.4-10.4zm40 0l-10.4 10.4 10.4 10.4 10.4-10.4-10.4-10.4zm40 0l-10.4 10.4 10.4 10.4 10.4-10.4-10.4-10.4zm40 0l-10.4 10.4 10.4 10.4 10.4-10.4-10.4-10.4zm40 0l-10.4 10.4 10.4 10.4 10.4-10.4-10.4-10.4zm40 0l-10.4 10.4 10.4 10.4 10.4-10.4-10.4-10.4zm40 0l-10.4 10.4 10.4 10.4 10.4-10.4-10.4-10.4zm40 0l-10.4 10.4 10.4 10.4 10.4-10.4-10.4-10.4zm40 0l-10.4 10.4 10.4 10.4 10.4-10.4-10.4-10.4zm-740 19.4l-11 11 11 11 11-11-11-11zm40 0l-11 11 11 11 11-11-11-11zm40 0l-11 11 11 11 11-11-11-11zm40 0l-11 11 11 11 11-11-11-11zm40 0l-11 11 11 11 11-11-11-11zm40 0l-11 11 11 11 11-11-11-11zm40 0l-11 11 11 11 11-11-11-11zm40 0l-11 11 11 11 11-11-11-11zm40 0l-11 11 11 11 11-11-11-11zm40 0l-11 11 11 11 11-11-11-11zm40 0l-11 11 11 11 11-11-11-11zm40 0l-11 11 11 11 11-11-11-11zm40 0l-11 11 11 11 11-11-11-11zm40 0l-11 11 11 11 11-11-11-11zm40 0l-11 11 11 11 11-11-11-11zm40 0l-11 11 11 11 11-11-11-11zm40 0l-11 11 11 11 11-11-11-11zm40 0l-11 11 11 11 11-11-11-11zm40 0l-11 11 11 11 11-11-11-11zm40 0l-11 11 11 11v-22zm-780 19.4v23.2l11.6-11.6-11.6-11.6zm40 0l-11.6 11.6 11.6 11.6 11.6-11.6-11.6-11.6zm40 0l-11.6 11.6 11.6 11.6 11.6-11.6-11.6-11.6zm40 0l-11.6 11.6 11.6 11.6 11.6-11.6-11.6-11.6zm40 0l-11.6 11.6 11.6 11.6 11.6-11.6-11.6-11.6zm40 0l-11.6 11.6 11.6 11.6 11.6-11.6-11.6-11.6zm40 0l-11.6 11.6 11.6 11.6 11.6-11.6-11.6-11.6zm40 0l-11.6 11.6 11.6 11.6 11.6-11.6-11.6-11.6zm40 0l-11.6 11.6 11.6 11.6 11.6-11.6-11.6-11.6zm40 0l-11.6 11.6 11.6 11.6 11.6-11.6-11.6-11.6zm40 0l-11.6 11.6 11.6 11.6 11.6-11.6-11.6-11.6zm40 0l-11.6 11.6 11.6 11.6 11.6-11.6-11.6-11.6zm40 0l-11.6 11.6 11.6 11.6 11.6-11.6-11.6-11.6zm40 0l-11.6 11.6 11.6 11.6 11.6-11.6-11.6-11.6zm40 0l-11.6 11.6 11.6 11.6 11.6-11.6-11.6-11.6zm40 0l-11.6 11.6 11.6 11.6 11.6-11.6-11.6-11.6zm40 0l-11.6 11.6 11.6 11.6 11.6-11.6-11.6-11.6zm40 0l-11.6 11.6 11.6 11.6 11.6-11.6-11.6-11.6zm40 0l-11.6 11.6 11.6 11.6 11.6-11.6-11.6-11.6zm40 0l-11.6 11.6 11.6 11.6 11.6-11.6-11.6-11.6zm-740 19.4l-12.199 12.2 12.199 12.2 12.199-12.2-12.199-12.2zm40 0l-12.199 12.2 12.199 12.2 12.199-12.2-12.199-12.2zm40 0l-12.199 12.2 12.199 12.2 12.2-12.2-12.2-12.2zm40 0l-12.2 12.2 12.2 12.2 12.2-12.2-12.2-12.2zm40 0l-12.2 12.2 12.2 12.2 12.2-12.2-12.2-12.2zm40 0l-12.2 12.2 12.2 12.2 12.2-12.2-12.2-12.2zm40 0l-12.2 12.2 12.2 12.2 12.2-12.2-12.2-12.2zm40 0l-12.2 12.2 12.2 12.2 12.2-12.2-12.2-12.2zm40 0l-12.2 12.2 12.2 12.2 12.2-12.2-12.2-12.2zm40 0l-12.2 12.2 12.2 12.2 12.2-12.2-12.2-12.2zm40 0l-12.2 12.2 12.2 12.2 12.2-12.2-12.2-12.2zm40 0l-12.2 12.2 12.2 12.2 12.2-12.2-12.2-12.2zm40 0l-12.2 12.2 12.2 12.2 12.2-12.2-12.2-12.2zm40 0l-12.2 12.2 12.2 12.2 12.2-12.2-12.2-12.2zm40 0l-12.2 12.2 12.2 12.2 12.2-12.2-12.2-12.2zm40 0l-12.2 12.2 12.2 12.2 12.2-12.2-12.2-12.2zm40 0l-12.2 12.2 12.2 12.2 12.2-12.2-12.2-12.2zm40 0l-12.2 12.2 12.2 12.2 12.2-12.2-12.2-12.2zm40 0l-12.2 12.2 12.2 12.2 12.2-12.2-12.2-12.2zm40 0l-12.2 12.2 12.2 12.2v-24.4zm-780 19.4v25.6l12.801-12.8-12.801-12.8zm40 0l-12.801 12.8 12.801 12.8 12.801-12.8-12.801-12.8zm40 0l-12.801 12.8 12.801 12.8 12.801-12.8-12.801-12.8zm40 0l-12.8 12.8 12.8 12.8 12.8-12.8-12.8-12.8zm40 0l-12.8 12.8 12.8 12.8 12.8-12.8-12.8-12.8zm40 0l-12.8 12.8 12.8 12.8 12.8-12.8-12.8-12.8zm40 0l-12.8 12.8 12.8 12.8 12.8-12.8-12.8-12.8zm40 0l-12.8 12.8 12.8 12.8 12.8-12.8-12.8-12.8zm40 0l-12.8 12.8 12.8 12.8 12.8-12.8-12.8-12.8zm40 0l-12.8 12.8 12.8 12.8 12.8-12.8-12.8-12.8zm40 0l-12.8 12.8 12.8 12.8 12.8-12.8-12.8-12.8zm40 0l-12.8 12.8 12.8 12.8 12.8-12.8-12.8-12.8zm40 0l-12.8 12.8 12.8 12.8 12.8-12.8-12.8-12.8zm40 0l-12.8 12.8 12.8 12.8 12.8-12.8-12.8-12.8zm40 0l-12.8 12.8 12.8 12.8 12.8-12.8-12.8-12.8zm40 0l-12.8 12.8 12.8 12.8 12.8-12.8-12.8-12.8zm40 0l-12.8 12.8 12.8 12.8 12.8-12.8-12.8-12.8zm40 0l-12.8 12.8 12.8 12.8 12.8-12.8-12.8-12.8zm40 0l-12.8 12.8 12.8 12.8 12.8-12.8-12.8-12.8zm40 0l-12.8 12.8 12.8 12.8 12.8-12.8-12.8-12.8zm-740 19.4l-13.4 13.4 13.4 13.4 13.4-13.4-13.4-13.4zm40 0l-13.4 13.4 13.4 13.4 13.4-13.4-13.4-13.4zm40 0l-13.4 13.4 13.4 13.4 13.4-13.4-13.4-13.4zm40 0l-13.4 13.4 13.4 13.4 13.4-13.4-13.4-13.4zm40 0l-13.4 13.4 13.4 13.4 13.4-13.4-13.4-13.4zm40 0l-13.4 13.4 13.4 13.4 13.4-13.4-13.4-13.4zm40 0l-13.4 13.4 13.4 13.4 13.4-13.4-13.4-13.4zm40 0l-13.4 13.4 13.4 13.4 13.4-13.4-13.4-13.4zm40 0l-13.4 13.4 13.4 13.4 13.4-13.4-13.4-13.4zm40 0l-13.4 13.4 13.4 13.4 13.4-13.4-13.4-13.4zm40 0l-13.4 13.4 13.4 13.4 13.4-13.4-13.4-13.4zm40 0l-13.4 13.4 13.4 13.4 13.4-13.4-13.4-13.4zm40 0l-13.4 13.4 13.4 13.4 13.4-13.4-13.4-13.4zm40 0l-13.4 13.4 13.4 13.4 13.4-13.4-13.4-13.4zm40 0l-13.4 13.4 13.4 13.4 13.4-13.4-13.4-13.4zm40 0l-13.4 13.4 13.4 13.4 13.4-13.4-13.4-13.4zm40 0l-13.4 13.4 13.4 13.4 13.4-13.4-13.4-13.4zm40 0l-13.4 13.4 13.4 13.4 13.4-13.4-13.4-13.4zm40 0l-13.4 13.4 13.4 13.4 13.4-13.4-13.4-13.4zm40 0l-13.4 13.4 13.4 13.4v-26.8zm-780 19.4v28l14-14-14-14zm40 0l-14 14 14 14 14-14-14-14zm40 0l-14 14 14 14 14-14-14-14zm40 0l-14 14 14 14 14-14-14-14zm40 0l-14 14 14 14 14-14-14-14zm40 0l-14 14 14 14 14-14-14-14zm40 0l-14 14 14 14 14-14-14-14zm40 0l-14 14 14 14 14-14-14-14zm40 0l-14 14 14 14 14-14-14-14zm40 0l-14 14 14 14 14-14-14-14zm40 0l-14 14 14 14 14-14-14-14zm40 0l-14 14 14 14 14-14-14-14zm40 0l-14 14 14 14 14-14-14-14zm40 0l-14 14 14 14 14-14-14-14zm40 0l-14 14 14 14 14-14-14-14zm40 0l-14 14 14 14 14-14-14-14zm40 0l-14 14 14 14 14-14-14-14zm40 0l-14 14 14 14 14-14-14-14zm40 0l-14 14 14 14 14-14-14-14zm40 0l-14 14 14 14 14-14-14-14zm-740 19.4l-14.6 14.6 14.6 14.6 14.6-14.6-14.6-14.6zm40 0l-14.6 14.6 14.6 14.6 14.6-14.6-14.6-14.6zm40 0l-14.6 14.6 14.6 14.6 14.6-14.6-14.6-14.6zm40 0l-14.6 14.6 14.6 14.6 14.6-14.6-14.6-14.6zm40 0l-14.6 14.6 14.6 14.6 14.6-14.6-14.6-14.6zm40 0l-14.6 14.6 14.6 14.6 14.6-14.6-14.6-14.6zm40 0l-14.6 14.6 14.6 14.6 14.6-14.6-14.6-14.6zm40 0l-14.6 14.6 14.6 14.6 14.6-14.6-14.6-14.6zm40 0l-14.6 14.6 14.6 14.6 14.6-14.6-14.6-14.6zm40 0l-14.6 14.6 14.6 14.6 14.6-14.6-14.6-14.6zm40 0l-14.6 14.6 14.6 14.6 14.6-14.6-14.6-14.6zm40 0l-14.6 14.6 14.6 14.6 14.6-14.6-14.6-14.6zm40 0l-14.6 14.6 14.6 14.6 14.6-14.6-14.6-14.6zm40 0l-14.6 14.6 14.6 14.6 14.6-14.6-14.6-14.6zm40 0l-14.6 14.6 14.6 14.6 14.6-14.6-14.6-14.6zm40 0l-14.6 14.6 14.6 14.6 14.6-14.6-14.6-14.6zm40 0l-14.6 14.6 14.6 14.6 14.6-14.6-14.6-14.6zm40 0l-14.6 14.6 14.6 14.6 14.6-14.6-14.6-14.6zm40 0l-14.6 14.6 14.6 14.6 14.6-14.6-14.6-14.6zm40 0l-14.6 14.6 14.6 14.6v-29.2zm-780 19.4v30.4l15.199-15.2-15.199-15.2zm40 0l-15.199 15.2 15.199 15.2 15.199-15.2-15.199-15.2zm40 0l-15.199 15.2 15.199 15.2 15.199-15.2-15.199-15.2zm40 0l-15.2 15.2 15.2 15.2 15.2-15.2-15.2-15.2zm40 0l-15.2 15.2 15.2 15.2 15.2-15.2-15.2-15.2zm40 0l-15.2 15.2 15.2 15.2 15.2-15.2-15.2-15.2zm40 0l-15.2 15.2 15.2 15.2 15.2-15.2-15.2-15.2zm40 0l-15.2 15.2 15.2 15.2 15.2-15.2-15.2-15.2zm40 0l-15.2 15.2 15.2 15.2 15.2-15.2-15.2-15.2zm40 0l-15.2 15.2 15.2 15.2 15.2-15.2-15.2-15.2zm40 0l-15.2 15.2 15.2 15.2 15.2-15.2-15.2-15.2zm40 0l-15.2 15.2 15.2 15.2 15.2-15.2-15.2-15.2zm40 0l-15.2 15.2 15.2 15.2 15.2-15.2-15.2-15.2zm40 0l-15.2 15.2 15.2 15.2 15.2-15.2-15.2-15.2zm40 0l-15.2 15.2 15.2 15.2 15.2-15.2-15.2-15.2zm40 0l-15.2 15.2 15.2 15.2 15.2-15.2-15.2-15.2zm40 0l-15.2 15.2 15.2 15.2 15.2-15.2-15.2-15.2zm40 0l-15.2 15.2 15.2 15.2 15.2-15.2-15.2-15.2zm40 0l-15.2 15.2 15.2 15.2 15.2-15.2-15.2-15.2zm40 0l-15.2 15.2 15.2 15.2 15.2-15.2-15.2-15.2zm-740 19.4l-15.801 15.8 15.801 15.8 15.801-15.8-15.801-15.8zm40 0l-15.801 15.8 15.801 15.8 15.801-15.8-15.801-15.8zm40 0l-15.801 15.8 15.801 15.8 15.8-15.8-15.8-15.8zm40 0l-15.8 15.8 15.8 15.8 15.8-15.8-15.8-15.8zm40 0l-15.8 15.8 15.8 15.8 15.8-15.8-15.8-15.8zm40 0l-15.8 15.8 15.8 15.8 15.8-15.8-15.8-15.8zm40 0l-15.8 15.8 15.8 15.8 15.8-15.8-15.8-15.8zm40 0l-15.8 15.8 15.8 15.8 15.8-15.8-15.8-15.8zm40 0l-15.8 15.8 15.8 15.8 15.8-15.8-15.8-15.8zm40 0l-15.8 15.8 15.8 15.8 15.8-15.8-15.8-15.8zm40 0l-15.8 15.8 15.8 15.8 15.8-15.8-15.8-15.8zm40 0l-15.8 15.8 15.8 15.8 15.8-15.8-15.8-15.8zm40 0l-15.8 15.8 15.8 15.8 15.8-15.8-15.8-15.8zm40 0l-15.8 15.8 15.8 15.8 15.8-15.8-15.8-15.8zm40 0l-15.8 15.8 15.8 15.8 15.8-15.8-15.8-15.8zm40 0l-15.8 15.8 15.8 15.8 15.8-15.8-15.8-15.8zm40 0l-15.8 15.8 15.8 15.8 15.8-15.8-15.8-15.8zm40 0l-15.8 15.8 15.8 15.8 15.8-15.8-15.8-15.8zm40 0l-15.8 15.8 15.8 15.8 15.8-15.8-15.8-15.8zm40 0l-15.8 15.8 15.8 15.8v-31.6zm-780 19.4v32.8l16.4-16.4-16.4-16.4zm40 0l-16.4 16.4 16.4 16.4 16.4-16.4-16.4-16.4zm40 0l-16.4 16.4 16.4 16.4 16.4-16.4-16.4-16.4zm40 0l-16.4 16.4 16.4 16.4 16.4-16.4-16.4-16.4zm40 0l-16.4 16.4 16.4 16.4 16.4-16.4-16.4-16.4zm40 0l-16.4 16.4 16.4 16.4 16.4-16.4-16.4-16.4zm40 0l-16.4 16.4 16.4 16.4 16.4-16.4-16.4-16.4zm40 0l-16.4 16.4 16.4 16.4 16.4-16.4-16.4-16.4zm40 0l-16.4 16.4 16.4 16.4 16.4-16.4-16.4-16.4zm40 0l-16.4 16.4 16.4 16.4 16.4-16.4-16.4-16.4zm40 0l-16.4 16.4 16.4 16.4 16.4-16.4-16.4-16.4zm40 0l-16.4 16.4 16.4 16.4 16.4-16.4-16.4-16.4zm40 0l-16.4 16.4 16.4 16.4 16.4-16.4-16.4-16.4zm40 0l-16.4 16.4 16.4 16.4 16.4-16.4-16.4-16.4zm40 0l-16.4 16.4 16.4 16.4 16.4-16.4-16.4-16.4zm40 0l-16.4 16.4 16.4 16.4 16.4-16.4-16.4-16.4zm40 0l-16.4 16.4 16.4 16.4 16.4-16.4-16.4-16.4zm40 0l-16.4 16.4 16.4 16.4 16.4-16.4-16.4-16.4zm40 0l-16.4 16.4 16.4 16.4 16.4-16.4-16.4-16.4zm40 0l-16.4 16.4 16.4 16.4 16.4-16.4-16.4-16.4zm-740 19.4l-17 17 17 17 17-17-17-17zm40 0l-17 17 17 17 17-17-17-17zm40 0l-17 17 17 17 17-17-17-17zm40 0l-17 17 17 17 17-17-17-17zm40 0l-17 17 17 17 17-17-17-17zm40 0l-17 17 17 17 17-17-17-17zm40 0l-17 17 17 17 17-17-17-17zm40 0l-17 17 17 17 17-17-17-17zm40 0l-17 17 17 17 17-17-17-17zm40 0l-17 17 17 17 17-17-17-17zm40 0l-17 17 17 17 17-17-17-17zm40 0l-17 17 17 17 17-17-17-17zm40 0l-17 17 17 17 17-17-17-17zm40 0l-17 17 17 17 17-17-17-17zm40 0l-17 17 17 17 17-17-17-17zm40 0l-17 17 17 17 17-17-17-17zm40 0l-17 17 17 17 17-17-17-17zm40 0l-17 17 17 17 17-17-17-17zm40 0l-17 17 17 17 17-17-17-17zm40 0l-17 17 17 17v-34zm-780 19.4v35.2l17.6-17.6-17.6-17.6zm40 0l-17.6 17.6 17.6 17.6 17.6-17.6-17.6-17.6zm40 0l-17.6 17.6 17.6 17.6 17.6-17.6-17.6-17.6zm40 0l-17.6 17.6 17.6 17.6 17.6-17.6-17.6-17.6zm40 0l-17.6 17.6 17.6 17.6 17.6-17.6-17.6-17.6zm40 0l-17.6 17.6 17.6 17.6 17.6-17.6-17.6-17.6zm40 0l-17.6 17.6 17.6 17.6 17.6-17.6-17.6-17.6zm40 0l-17.6 17.6 17.6 17.6 17.6-17.6-17.6-17.6zm40 0l-17.6 17.6 17.6 17.6 17.6-17.6-17.6-17.6zm40 0l-17.6 17.6 17.6 17.6 17.6-17.6-17.6-17.6zm40 0l-17.6 17.6 17.6 17.6 17.6-17.6-17.6-17.6zm40 0l-17.6 17.6 17.6 17.6 17.6-17.6-17.6-17.6zm40 0l-17.6 17.6 17.6 17.6 17.6-17.6-17.6-17.6zm40 0l-17.6 17.6 17.6 17.6 17.6-17.6-17.6-17.6zm40 0l-17.6 17.6 17.6 17.6 17.6-17.6-17.6-17.6zm40 0l-17.6 17.6 17.6 17.6 17.6-17.6-17.6-17.6zm40 0l-17.6 17.6 17.6 17.6 17.6-17.6-17.6-17.6zm40 0l-17.6 17.6 17.6 17.6 17.6-17.6-17.6-17.6zm40 0l-17.6 17.6 17.6 17.6 17.6-17.6-17.6-17.6zm40 0l-17.6 17.6 17.6 17.6 17.6-17.6-17.6-17.6zm-740 19.4l-18.199 18.2 18.199 18.2 18.199-18.2-18.199-18.2zm40 0l-18.199 18.2 18.199 18.2 18.199-18.2-18.199-18.2zm40 0l-18.199 18.2 18.199 18.2 18.2-18.2-18.2-18.2zm40 0l-18.2 18.2 18.2 18.2 18.2-18.2-18.2-18.2zm40 0l-18.2 18.2 18.2 18.2 18.2-18.2-18.2-18.2zm40 0l-18.2 18.2 18.2 18.2 18.2-18.2-18.2-18.2zm40 0l-18.2 18.2 18.2 18.2 18.2-18.2-18.2-18.2zm40 0l-18.2 18.2 18.2 18.2 18.2-18.2-18.2-18.2zm40 0l-18.2 18.2 18.2 18.2 18.2-18.2-18.2-18.2zm40 0l-18.2 18.2 18.2 18.2 18.2-18.2-18.2-18.2zm40 0l-18.2 18.2 18.2 18.2 18.2-18.2-18.2-18.2zm40 0l-18.2 18.2 18.2 18.2 18.2-18.2-18.2-18.2zm40 0l-18.2 18.2 18.2 18.2 18.2-18.2-18.2-18.2zm40 0l-18.2 18.2 18.2 18.2 18.2-18.2-18.2-18.2zm40 0l-18.2 18.2 18.2 18.2 18.2-18.2-18.2-18.2zm40 0l-18.2 18.2 18.2 18.2 18.2-18.2-18.2-18.2zm40 0l-18.2 18.2 18.2 18.2 18.2-18.2-18.2-18.2zm40 0l-18.2 18.2 18.2 18.2 18.2-18.2-18.2-18.2zm40 0l-18.2 18.2 18.2 18.2 18.2-18.2-18.2-18.2zm40 0l-18.2 18.2 18.2 18.2v-36.4zm-780 19.4v37.6l18.801-18.8-18.801-18.8zm40 0l-18.801 18.8 18.801 18.8 18.801-18.8-18.801-18.8zm40 0l-18.801 18.8 18.801 18.8 18.801-18.8-18.801-18.8zm40 0l-18.8 18.8 18.8 18.8 18.8-18.8-18.8-18.8zm40 0l-18.8 18.8 18.8 18.8 18.8-18.8-18.8-18.8zm40 0l-18.8 18.8 18.8 18.8 18.8-18.8-18.8-18.8zm40 0l-18.8 18.8 18.8 18.8 18.8-18.8-18.8-18.8zm40 0l-18.8 18.8 18.8 18.8 18.8-18.8-18.8-18.8zm40 0l-18.8 18.8 18.8 18.8 18.8-18.8-18.8-18.8zm40 0l-18.8 18.8 18.8 18.8 18.8-18.8-18.8-18.8zm40 0l-18.8 18.8 18.8 18.8 18.8-18.8-18.8-18.8zm40 0l-18.8 18.8 18.8 18.8 18.8-18.8-18.8-18.8zm40 0l-18.8 18.8 18.8 18.8 18.8-18.8-18.8-18.8zm40 0l-18.8 18.8 18.8 18.8 18.8-18.8-18.8-18.8zm40 0l-18.8 18.8 18.8 18.8 18.8-18.8-18.8-18.8zm40 0l-18.8 18.8 18.8 18.8 18.8-18.8-18.8-18.8zm40 0l-18.8 18.8 18.8 18.8 18.8-18.8-18.8-18.8zm40 0l-18.8 18.8 18.8 18.8 18.8-18.8-18.8-18.8zm40 0l-18.8 18.8 18.8 18.8 18.8-18.8-18.8-18.8zm40 0l-18.8 18.8 18.8 18.8 18.8-18.8-18.8-18.8zm-740 19.4l-19.4 19.4 19.4 19.4 19.4-19.4-19.4-19.4zm40 0l-19.4 19.4 19.4 19.4 19.4-19.4-19.4-19.4zm40 0l-19.4 19.4 19.4 19.4 19.4-19.4-19.4-19.4zm40 0l-19.4 19.4 19.4 19.4 19.4-19.4-19.4-19.4zm40 0l-19.4 19.4 19.4 19.4 19.4-19.4-19.4-19.4zm40 0l-19.4 19.4 19.4 19.4 19.4-19.4-19.4-19.4zm40 0l-19.4 19.4 19.4 19.4 19.4-19.4-19.4-19.4zm40 0l-19.4 19.4 19.4 19.4 19.4-19.4-19.4-19.4zm40 0l-19.4 19.4 19.4 19.4 19.4-19.4-19.4-19.4zm40 0l-19.4 19.4 19.4 19.4 19.4-19.4-19.4-19.4zm40 0l-19.4 19.4 19.4 19.4 19.4-19.4-19.4-19.4zm40 0l-19.4 19.4 19.4 19.4 19.4-19.4-19.4-19.4zm40 0l-19.4 19.4 19.4 19.4 19.4-19.4-19.4-19.4zm40 0l-19.4 19.4 19.4 19.4 19.4-19.4-19.4-19.4zm40 0l-19.4 19.4 19.4 19.4 19.4-19.4-19.4-19.4zm40 0l-19.4 19.4 19.4 19.4 19.4-19.4-19.4-19.4zm40 0l-19.4 19.4 19.4 19.4 19.4-19.4-19.4-19.4zm40 0l-19.4 19.4 19.4 19.4 19.4-19.4-19.4-19.4zm40 0l-19.4 19.4 19.4 19.4 19.4-19.4-19.4-19.4zm40 0l-19.4 19.4 19.4 19.4v-38.8zm-780 19.4v20h20l-20-20zm20 20h40l-20-20-20 20zm40 0h40l-20-20-20 20zm40 0h40l-20-20-20 20zm40 0h40l-20-20-20 20zm40 0h40l-20-20-20 20zm40 0h40l-20-20-20 20zm40 0h40l-20-20-20 20zm40 0h40l-20-20-20 20zm40 0h40l-20-20-20 20zm40 0h40l-20-20-20 20zm40 0h40l-20-20-20 20zm40 0h40l-20-20-20 20zm40 0h40l-20-20-20 20zm40 0h40l-20-20-20 20zm40 0h40l-20-20-20 20zm40 0h40l-20-20-20 20zm40 0h40l-20-20-20 20zm40 0h40l-20-20-20 20zm40 0h40l-20-20-20 20z" fill-rule="evenodd"/>
</g>
</svg>
