<?xml version="1.0" encoding="UTF-8"?>
<svg width="512pt" height="512pt" version="1.1" fill="currentColor" viewBox="0 0 512 512" xmlns="http://www.w3.org/2000/svg">
 <path d="m175.26 389.92c0.23828 8.1406 1.2617 15.441 3.0195 21.879h46.738c-11.121-16.82-30.582-21.539-49.762-21.879zm-142.26-378.02v467.08h467.08v21.121h-488.2v-488.2zm140.08 268.38 58.699 58.68c5.2812 5.0391 1.8789 13.781-5.3203 13.781h-51.18v21.379c29.059 0.46094 55.156 10.141 67.738 37.66h89.82l-232.64-232.64v92.242c26.762 11.762 36.379 36.66 37.16 65.543l22.078-0.019531v-51.18c0-7.1406 8.7383-10.602 13.641-5.4609zm34.238 56.637-32.039-32.059v32.059zm-109.44-182.48 259.68 259.68c4.9219 4.9219 1.5 13.52-5.6016 13.52h-103.7c1.5 6.6992 2.3398 14.02 2.5586 21.961h155.56c10.422 0 10.422 15.84 0 15.84h-163.44c-31.48 0-61.281-6.3398-75.68-37.801h-37.48c-14 30.559-44.281 38.82-75.941 37.578-4.2617-0.16016-7.6211-3.7188-7.582-7.9609-0.73828-31.398 7.6797-61.977 38.121-75.738v-35.379c-30.422-12.781-38.738-42.199-38.141-73.18l-0.039063-169.46c0-10.422 15.84-10.422 15.84 0v160.74c8.0781 0.10156 15.52 0.82031 22.32 2.1992v-106.42c0-7.1016 8.6016-10.52 13.52-5.6016zm87.379 273.22c11.102 16.82 30.602 21.559 49.762 21.879-0.23828-8.1406-1.2617-15.441-3.0195-21.879zm-85.059-138.44v45.52c6.3203 1.4805 13.441 2.2617 21.379 2.3398-0.53906-18.5-5.1016-37.48-21.379-47.859zm0 61.641v25.578c6.582-1.3984 13.762-2.1602 21.5-2.3008l-0.10156-21.281c-7.7188-0.078125-14.859-0.73828-21.422-2zm0 41.82v19.141h18.539c1.7812-6.4414 2.7617-13.738 3.0195-21.879-8 0.14062-15.199 1.0586-21.559 2.7383zm34.801 19.141h27.039c-1.4805-6.6406-2.3203-13.898-2.5391-21.762h-21.941c-0.21875 7.8594-1.0586 15.121-2.5391 21.762zm-23.219 15.84h-19.5c-4.3789 0-7.9219-3.5391-7.9219-7.9219v-20.238c-16.898 11.02-21.762 30.922-22.32 50.039 19.18-0.32031 38.641-5.0586 49.738-21.879zm-27.422-99.137v-45.879c-6.5391-1.6406-14-2.4805-22.34-2.5781 0.55859 18.898 5.1797 38.121 22.34 48.461zm75.078 45.699v-21.441h-22.039l0.14062 21.441z"/>
</svg>
