<?xml version="1.0" encoding="UTF-8"?>
<svg width="512pt" height="512pt" version="1.1" fill="currentColor" viewBox="0 0 512 512" xmlns="http://www.w3.org/2000/svg">
 <path d="m122.44 218.09c-6.2109 0-11.539 5.2969-11.539 11.531v134.15c0 6.2344 5.3281 11.531 11.539 11.531h139.05c6.2109 0 11.539-5.2969 11.539-11.531v-25.211h-0.003906c0.039062-2.5898-0.96484-5.0859-2.7812-6.9297-1.8203-1.8438-4.3008-2.8789-6.8906-2.8789-2.5898 0-5.0703 1.0352-6.8867 2.8789-1.8203 1.8438-2.8242 4.3398-2.7852 6.9297v17.395h-123.43v-118.52h89.496c2.5898 0.035156 5.082-0.96875 6.9258-2.7852 1.8477-1.8203 2.8828-4.3008 2.8828-6.8906 0-2.5898-1.0352-5.0703-2.8828-6.8867-1.8438-1.8203-4.3359-2.8203-6.9258-2.7852z"/>
 <path d="m158.6 252.71c-6.0625 0-10.941 4.9023-10.941 10.914 0 6.0078 4.8789 10.914 10.941 10.914s11.02-4.9023 11.02-10.914c0-6.0078-4.957-10.914-11.02-10.914z"/>
 <path d="m191.96 285.84c-6.0625 0-10.941 4.8242-10.941 10.836 0 6.0078 4.8789 10.914 10.941 10.914s10.941-4.9023 10.941-10.914c0-6.0078-4.8789-10.836-10.941-10.836z"/>
 <path d="m158.6 318.88c-6.0625 0-10.941 4.9023-10.941 10.914 0 6.0078 4.8789 10.836 10.941 10.836s11.02-4.8242 11.02-10.836c0-6.0078-4.957-10.914-11.02-10.914z"/>
 <path d="m225.33 318.88c-6.0625 0-10.941 4.9023-10.941 10.914 0 6.0078 4.8789 10.836 10.941 10.836s10.941-4.8242 10.941-10.836c0-6.0078-4.8789-10.914-10.941-10.914z"/>
 <path d="m316.53 343.74c5.3867 3.1016 12.648 1.1641 15.77-4.2266l67.254-116.18c3.1211-5.3906 1.1719-12.633-4.2148-15.734l-120.43-69.344c-5.3867-3.1016-12.656-1.168-15.773 4.2227l-67.254 116.18c-3.1211 5.3906-1.1641 12.637 4.2227 15.738zm2.918-20.645-106.89-61.547 59.426-102.66 106.89 61.547z"/>
 <path d="m340.41 218.09c-3.5078 0.23828-6.8086 2.1641-8.6914 5.418-3.0117 5.2031-1.2148 11.914 4.0352 14.938 5.25 3.0234 11.965 1.2578 14.977-3.9492 3.0117-5.2031 1.1367-11.914-4.1133-14.938-1.9688-1.1328-4.1016-1.6133-6.207-1.4688z"/>
 <path d="m294.94 230.16c-3.5078 0.23828-6.8086 2.0859-8.6914 5.3398-3.0117 5.2031-1.2148 11.914 4.0352 14.938 5.25 3.0234 11.965 1.2578 14.977-3.9453 3.0117-5.2031 1.1367-11.914-4.1133-14.938-1.9688-1.1328-4.1016-1.5352-6.207-1.3945z"/>
 <path d="m249.46 242.15c-3.5078 0.23828-6.8086 2.0859-8.6914 5.3398-3.0117 5.2031-1.2148 11.914 4.0352 14.938 5.25 3.0234 11.965 1.2578 14.977-3.9453 3.0117-5.2031 1.1367-11.914-4.1133-14.938-1.9688-1.1328-4.1016-1.5352-6.207-1.3945z"/>
</svg>
