<svg xmlns="http://www.w3.org/2000/svg" xmlns:xlink="http://www.w3.org/1999/xlink" version="1.1" x="0px" y="0px" viewBox="0 0 110 105"  xml:space="preserve" fill="currentColor"><path d="M63.63,56.748c-1.729-0.743-2.959-2.104-5.022-1.483c-0.095,0.029-1.269,0.619-1.755,1.004  c0.647-0.838,1.143-1.295,1.143-1.295c1.372-1.259,3.084-3.237,3.916-5.779c1.101,0.052,2.04-0.543,2.746-1.353  c0.331-0.377,0.608-0.807,0.853-1.245c0.285-0.517,0.408-1.352,0.765-1.788c-0.342,0.417-0.742,0.954-1.253,1.177  c-0.985,0.428-2.027,0.464-2.688,1.325c0.241-1.946-0.076-4.146-1.385-6.56c0,0,0.293,1.463,0.4,3.272  c-0.082-0.344-0.184-0.681-0.201-0.716c-0.624-1.252-1.814-1.229-2.933-1.715c-0.511-0.222-0.911-0.76-1.253-1.177  c0.356,0.437,0.479,1.271,0.765,1.788c0.244,0.438,0.521,0.867,0.853,1.246c0.718,0.823,1.677,1.426,2.802,1.352  c0.059,2.463-0.315,5.26-2.208,5.949c0,0,1.25-4.515-1.552-5.967c0,0,0.479,2.143-0.104,4.649c-0.083-0.412-0.234-0.919-0.256-0.963  c-0.623-1.253-1.813-1.23-2.933-1.716c-0.51-0.223-0.91-0.759-1.255-1.177c0.359,0.436,0.48,1.271,0.768,1.788  c0.242,0.438,0.521,0.867,0.851,1.246c0.695,0.796,1.614,1.381,2.69,1.354c-0.352,1.208-0.965,2.47-2.012,3.597  c0.007,0.006-0.629,0.639-0.968,0.909c-0.016,0.006-3.292,2.894-3.292,2.894s-5.483-9.192,2.419-20.641c0,0,1.846-2.491,1.293-6.241  c1.396-0.086,2.639-0.833,3.63-1.843c0.541-0.553,1.01-1.188,1.423-1.841c0.488-0.769,0.754-2.042,1.343-2.682  c-0.562,0.612-1.227,1.402-2.035,1.699c-1.767,0.645-3.595,0.501-4.669,2.369c-0.017,0.029-0.078,0.19-0.157,0.413  c-0.493-1.428-1.353-2.982-2.763-4.614c-0.225-0.191-0.39-0.407-0.555-0.651c-0.975-1.45-1.269-3.446-1.3-5.146  c-0.036-1.98,0.387-3.875,0.894-5.762c1.429-0.486,2.441-1.665,3.089-3.026c0.332-0.699,0.569-1.452,0.747-2.204  c0.212-0.885,0.048-2.176,0.397-2.973c-0.333,0.762-0.704,1.726-1.372,2.269c-1.46,1.186-3.235,1.644-3.644,3.761  c-0.012,0.06-0.023,0.586-0.004,1.123c-0.316,0.541-0.616,1.093-0.865,1.674c-0.704,1.643-1.191,3.501-1.29,5.352  c-0.662-0.795-1.673-0.842-2.633-1.259c-0.511-0.222-0.911-0.761-1.254-1.178c0.359,0.437,0.481,1.272,0.766,1.788  c0.245,0.438,0.523,0.867,0.854,1.246c0.614,0.705,1.404,1.245,2.325,1.341c0.065,0.583,0.163,1.161,0.33,1.72  c0.398,1.335,1.554,2.988,2.623,4.722c0.555,0.898,1.079,1.819,1.47,2.729c0.016,0.062,0.179,0.729,0.262,1.635  c-0.002,0.023-0.207,2.354-0.854,4.07c-0.225,0.398-0.674,1.27-0.678,1.273c-0.126,0.149-0.654,1.355-1.269,2.829  c-0.045-0.235-0.083-0.406-0.095-0.438c-0.788-2.005-2.619-2.133-4.273-3.03c-0.751-0.412-1.295-1.292-1.76-1.979  c0.488,0.719,0.563,2.019,0.934,2.85c0.313,0.707,0.679,1.403,1.138,2.031c0.831,1.146,1.952,2.068,3.321,2.357  c-0.62,1.529-1.207,3.027-1.469,3.765c-0.083,0.225-0.415,1.306-0.415,1.306c-1.738,5.966-0.491,12.486,1.045,17.262h0  c0.001,0.003,0.002,0.006,0.003,0.009c0.189,0.589,0.383,1.148,0.576,1.68c3.665,12.386-6.271,25.968-6.283,25.983  c-1.537,1.801-3.127,3.428-4.142,3.82h19.755c-0.685-0.052-5.767-0.716-3.392-8.594c0.008-0.032,0.01-0.06,0.019-0.093  c1.723-6.758,0-17.107,0-17.107l0.015,0.004c-2.005-5.8,0.379-10.358,2.046-12.613c0.002,0.007-0.011,0.019-0.006,0.024  c1.104,1.367,2.812,1.813,4.505,1.749c0.774-0.03,1.551-0.17,2.301-0.361c0.881-0.223,1.949-0.967,2.816-1.027  C65.446,56.969,64.419,57.088,63.63,56.748z"/></svg>