<?xml version="1.0" encoding="UTF-8"?>
<svg id="Layer_2" fill="currentColor" xmlns="http://www.w3.org/2000/svg" width="8in" height="4.2in" version="1.1" viewBox="0 0 576.5 305.5" alt="The Lands Remaining Logo">
  <!-- Generator: Adobe Illustrator 30.0.0, SVG Export Plug-In . SVG Version: 2.1.1 Build 123)  -->
  <path class="st0" d="M129,281.3c-2.8,3.4-7.3,5.1-13.6,5.1h-16.7v-24.2h10.3c3,0,5.5,1.1,6.9,3l3,4,3.8-30.4-4.6,6.1c-1.4,1.9-3.9,3-7,3h-12.3v-29.8h14.5c6.6,0,11.7.9,15.1,5.1l4.8,5.8-5.3-26.7h-58.8l8.6,3.9c3,1.3,3.2,5.2,3.2,6.3v79.3c0,1.4-.3,4.9-3.3,6.4l-2.3,1.2-3.3-1.2c-3.3-1.2-5.6-4.4-6.6-7.1l-11.8-28.7c10.8-7.3,17.5-19.2,17.5-31.4s-10-25.4-24.5-28.1c.1,0,.2-.1.3-.2.7-1.6,2-2.6,2.9-4.2h.7l.6-2c1.8-1.5,2.6-3.7,4.1-5.3.6-2.5,2.6-4.1,2.9-6.6.4,0,.4-.7.7-1.2,1-2.3,1.3-5.7,1.9-7.5,1.9-7.5,2.9-15.3,3.8-22.8.4-3.2.7-6.6,1.2-9.8.6-2.9,1.3-6,1.3-8.8s.9-4.4,1-5.6c.3-1.6.2-2.4.5-3.8,4.2-.1,6.3,0,10.2-.2.3,0,.6-.1.7-.6,0-.1,0-.2.1-.3,0-.1,0-.3.1-.4,0,0,0,0,0,0,0-.3,0-.5,0-.8,0-.2,0-.3,0-.5,0,0,0,0,0,0,0-.2,0-.3-.1-.5-.3,0-.5,0-.7-.2-.1,0-.2,0-.3,0-.6-.1-2.5-.3-3.1-.3-2.3-.1-4.5,0-6.3,0,.1-3.2,1.3-7.7,1.9-10.8.3-4.5,1-9.6,1.9-13.4.5-.9.8-2,1.1-3.2,0-.2,0-.4,0-.5-.2-3.2.7-6,1.9-8.8,0-1.1,0-2.3,0-3.4-1.9,1.5-4,3.4-5.6,5-2.9,2.8-4.8,7.7-5.4,12.4-2.2,8.6-3,14.3-4.3,23-.7,0-1.4.2-3.2.2s-2.9,0-4.3,0-1.5.2-2.2.4c0,0,0,0,0,0,0,.2,0,.3-.1.5,0,.2,0,.3,0,.5,0,.3,0,.5,0,.7,0,0,0,.1,0,.2,0,0,0,0,0,0,0,0,0,0,0,0,0,0,0,.1,0,.2.2,0,.3.1.5.2l-.4-.2c.2,0,.4.2.6.3,2.8.3,5.2.3,8.6.3-.1,1.2-.3,3.1-.4,4.1s-.6,4.1-.7,5.1c-.1,1.5-.7,2.6-1,4.1-.1,2-.3,4.1-.4,6.3-.1,1.8-.7,3.2-.9,5-.4,2.9-.9,6-1,8.9-.7,6.4-1.3,12.1-2,18.1-.4,3.4-1.5,6.7-2.2,9.5-.3,1.6-.7,3.8-1.5,5.7-1.2,3.1-4.5,7.2-5.1,8.2-.4.9-.8,1.7-1.2,2.6-1.3-.1-2.6-.2-3.9-.2H5.2l8.6,3.9c3,1.3,3.2,5.2,3.2,6.3v79.3c0,1.4-.3,4.9-3.3,6.4l-7.7,3.8h121l7.4-27.5-5.5,6.7ZM47.8,298.3l-4.5,2.5-5.1-2.6c-3-1.5-3.3-5-3.3-6.4v-22.8c1.1,0,2.2-.2,3.3-.4l9.8,24c.9,2.2,1.2,4.8-.2,5.6ZM34.9,253.2v-35.2h4.9c8.6,0,13.7,4.8,13.7,12.8,0,11.7-9.5,20.9-18.6,22.4Z"/>
  <path class="st0" d="M498.4,291.9v-79.3c0-1.1.2-5,3.2-6.3l8.6-3.9h-41.5l8.6,3.9c2.5,1.1,3.4,4,3.4,6.3v36.6c-2.6-2.8-5.3-5.3-7.9-7.9-2.4-2.4-5-4.8-7.3-7.3-6.7-7-9.2-12.9-9.2-21.5s.2-5,3.2-6.3l8.6-3.9h-48.8c-1.2-3.2-1.3-6.9-1.5-10.2,0-1.5-.4-2.9-.1-4.4,0-.6.4-1.2.4-1.8.3-3.2,1.5-4.8,2.6-7.2,1.8-1.6,3.5-3.2,5-5-1.2-.7-2.2.6-3.2.9-1.9,2.2-4.2,3.8-5.3,6.6-.3,0-.4.1-.6.1-.1.9-.1,1-.7,1.5-1,3.9-3.4,8.8-4.2,13.4-.9,1.9-1.3,4.2-2.2,6h-20.1c.6-3.9,1.2-8,1.7-11.3.9-5.1,1.3-9.8,3.1-13.6.7-2.2,1.8-4.3,2.7-6.2.6-.5,1.1-1.2,1.5-1.8.9-1.2,1.7-2.1,2.8-3.1,1.3-1.3,2.6-2.3,4-3.5.7-.7,1.7-1.5,2.4-2.2,2.4-2,4.5-4,7.3-4.8,4.3-1.1,11.2-1.2,14.9.5,1.5.5,3.2.6,4.8,1,.4.2.7.6,1.1.9,1.1.4,1.7.5,2.4,1,1.3.7,2.1,1.1,3.2,1.7.6.4,1.3.6,2,1,3.8,2,7,4.6,10.3,7.1.4.2.9.5,1.2.7.6.6.9,1.3,1.6,1.8,1.1.9,2.2,1.5,3.2,2.3,1.3,1.3,2.6,2.8,4,3.9,1.3,2.3,2.9,3.3,3.4,5.7.1.5,0,1.3.2,2,.1.6.9,1.2,1.3,1.7,3.2,3.5,8.1,4.3,13.3,2.3,1.8-.7,3.8-1.2,5.6-1.8,2-.7,4-2.6,6-3.9,6.5-4.3,11.7-10,16.3-15.9,2-2.6,4.3-5.5,5.1-9-.1-.6-.7-.1-.9-.6.1-2-.4-3.2-1.1-4.4-2.2-4.3-8.8-7.7-13.4-4.5-.6.4-1.6,1.2-2.1,1.7-.6.6-1.5,1.8-1.1,2.9.9,0,1-.9,1.5-1.3,1-1.1,2.6-2.3,4.6-2.6,2.6-.2,5.4,1.3,7,3.2,1.8,1.8,3.3,5,1.8,8.3-1.5,2-3.4,3.4-4.2,6.1-2.8,3.8-6.2,7.2-10.5,10.1-2,1.5-4.3,2.3-7,3.4-2.4,1.1-5.4,2.1-8.3,2-3.7-.2-6.8-1.7-8.8-3.3-.9,0-1.8-1.2-2.9-1.6-.9-1.1-2.1-1.8-3.2-2.7-1.1-.7-2.3-1.6-3.4-2.4-2.4-2-4.8-4.2-7.6-5.7-.2-.5-.9-.9-1.2-1.1-2.4-1.8-4.9-3.5-7.3-5-1.1-.6-3.4-2.3-3.9-2.2-.2-.5-.9-.6-1.1-1.1-.6-.1-1.2-.5-2-.9-.6-.4-2.8-1.6-3.4-1.7-3.2-1.1-6.5-2.1-10.4-2.3-1.6-.1-3.2-.5-4.6-.5-1.1.1-2.1.5-3.1.7-2,.2-3.8.5-5.5.9-1.2.9-2.3,1.7-3.8,2.3-1.7,1.7-7,5.7-7.5,6.2-.5.5-.9,1.2-1.2,1.8-3.4,3.9-7.6,8.4-9.8,13-5.4,5.9-6.2,16.3-8,24.8h-18.5l8.6,3.9c2.5,1.1,3.4,4,3.4,6.3v36.6c-2.6-2.8-5.3-5.3-7.9-7.9-2.4-2.4-5-4.8-7.3-7.3-6.7-7-9.2-12.9-9.2-21.5s.2-5,3.2-6.3l8.6-3.9h-74.8l8.6,3.9c3,1.3,3.2,5.2,3.2,6.3v79.3c0,1.4-.3,4.9-3.3,6.4l-1.5.8-2-.8c-2.9-1.2-4.5-4.2-4.9-6.7l-16.2-79.3c0-.5-.2-1.4-.2-2.5,1.5-.3,2.9-1,4.1-2.3,1.4-1.4,3.4-2.6,4.9-4.1,4.1-2.4,7.9-6.2,11.2-8.5.2-.7.4-.7,1.1-1.2,0-.1,0-.3,0-.6,2.3-1.9,3-4.6,4.4-7.2,0-1.1.8-2.5-.2-3.3-1.2,2-2.1,4.2-3,6.3-1.8,1.9-2.9,3.5-5.9,4.9-.6.2-1,.8-1.5,1-1.3.8-2.8.8-4.2,1.3-2.3.6-4.7,1.4-7.2,1.8-.9,0-1.8.2-2.8.2-.8,0-2.6,0-2.6,0-2.7,0-5.4,0-8,0-2.8,0-5.4-.3-7.8-.7-.1,0-.2,0-.4,0-3.3.1-6.7-1.1-9.8-2-7.3-2.1-14.5-4.3-21.7-6.5-6.7-2-13.3-3.8-20-5.8-.3,0-.5,0-.8,0-2.8-.5-5.4-2-8.2-2.4-.1,0-.3,0-.4,0-1.8-1-3.6-2-5.6-2.6-1.2-.4-2.3-.8-3.4-1.3-.6-.3-1.3-.7-1.9-1,.3-.6.6-1.1,1-1.5,0,0,0,0,.1,0,1.7-3.8,3.4-7.5,4.9-12,.4-.8.4-1.4.7-2,1.3-3.5,2.5-7.3,4-11,.4-1.4,1.1-2.8,1.6-4.3.5-1.6.9-3.1,1.4-4.7.2-.6.7-1.2,1.1-1.8.2-.8,0-1.6,0-2.2.4-.8.7-1.4,1.1-2,.9-3.3,2.3-7.5,3.4-11.4,1.3-4.9,2.8-9.5,3.9-14.3.4-.7.8-1.4,1.2-2.1,0-.2.2-.3.3-.4.3-1.3,1-2.4,1.1-3.7.4-2.5,0-5.1.4-7.5.2-1.7,1-4,1.2-5.3.4-2.1.3-4.5.9-6.2.8-3,1.6-7,2.2-10.2.2-1.3,0-2.6.3-4,.2-1.3.8-2.7,1-3.8.6-4,.6-8.5,1.7-11.7.2-.9,0-2.1.1-3,2.4-5.7,3.8-12.3,6.4-18,.2-.6,1.1-1.2,1.4-1.7.2-.9,0-1.5.6-1.9-.3-2.3,1.1-2.7,1.5-4.9,2.1-1.7,4.1-3.6,6.2-5.5,4.5-5.6,9.7-10.4,15.5-14.6,0,0,0,0,0,0,.1-.2.2-.3.3-.5,0,0,0,0,0,0,0,0,0-.2-.1-.2,0,0-.1-.1-.2-.2-.8.3-1.5.4-2.1.3-1.4,1.3-5.1,3.9-5.3,3.9-1.6,1-3,1.8-4.2,2.5-2.1,1.7-3.7,3.1-5.7,4.8-.9.8-1.6,1.9-2.5,2.7-1.4,1.2-3.2,1.8-4.4,2.9-.7.8-2.9,3.8-2.9,4.2-.9.2-1.1,1.9-2.5,2.1-1.3,4.2-5,6.5-6,10.9-5,5.2-5.9,13.5-9.2,19.8-.1,2.6-2.1,6.1-2.5,8.7-.2,1.3.3,2.8.2,4.1-.2.6-.7,1-.9,1.5-.2.8.3,1.7,0,2.4-.2,1.3-.9,2.8-1.3,4.3-2.4,1.4-5,2.7-8.2,2.9-3.8.2-5.9-1.1-8.6-2.6-4.4-2.2-7.5-5.6-12-7.4-6.6-5.8-13.5-11.2-21.6-15.5,0-.1-2.8-1.7-4.8-1.9-.4-.6-.7-.6-1.5-.9-1.5-.6-2.5-.9-3.7-1.1-.4-.1-.9-.4-1.2-.6-.4,0-1-.3-1.5-.3-4.7-.8-10.1-1-14.3.1-3.5,1.3-5.4,4.4-9.2,5.6-.3.6-.9.9-1.3,1.3-1.5,1-2.8,2.2-3.5,3.7-.9.4-1.5,1.5-1.9,2.2-2.9,3.5-5.9,6.8-7.8,10.9-3.3,3.7-5.1,8.8-6.8,14.1-.4,2.1-.7,4.1-.8,6.1l-1.3,1.6c0,.4.2.9,0,1.3-.3,1.8-1.4,3.7-1.6,5.6l-1.4,3.5v4.2c-.7,3.1-2.3,7-2.7,10.5l-.7,5c-1.1,4.7-1.7,9.4-2.4,14.8-.3,4.1-.7,8.3-1.5,12.3-1.4,7.3-2.4,14.9-5.8,20.4-1.2,1.8-1.6,3.4-3,5,1.3.9,2.2-.5,2.9-1.2,2.5-2.5,4.6-4.4,6.8-6.9,3.6-3.7,5.3-9.8,6.5-16,1.9-6.4,2.8-14.6,3.8-21.2v-2.5c.5-2.6,2.6-4.4,4-6,1.2-1.5,3.5-2.8,4.5-2.7,2.8,1.6,3.3,7.9,3.3,12.5l.6,1c-.4,3.9-1.7,10.1-1.8,13-.1,3.5-2.3,9.7-1.9,14.5-.3,2.3-1.1,4.7-1.1,7-.1,2.2-.1,4.5.3,6,.9,1,1.6,1.7,3.4,1.3,2.8-.8,4.9-3.2,7.3-5.3,1.2-.9,2.5-1.9,3.6-2.9,1-.9,2.9-1.9,2.3-3.5-2.3,0-3,2.7-5.4,3.1-1.3-.7-1.5-3.1-1.3-4.5,0-1.8.1-3.8.4-5.8.3-1.6.3-3.7.5-5.7.6-3.5,1.3-7.5,1.5-11.1.7-8.2,2.4-18.1-.2-24.5-1-2.6-2.7-5.1-6.2-3.9-2.9.9-4.5,3.5-6.7,5.5-1.2,1-2,2.1-3.2,2.9-1,1.2-1.9,2.5-3.2,3.1.6-4.7,3.4-14.9,4.8-22.4.3-1.9,2-5.6,2-7.3.7-7.9,1.6-15.9,3.9-22.5.9-1.8,1.9-3.4,2.9-5.3,2.3-1.9,4.8-3.8,6.5-6.3,1.7-1.2,2.9-2.5,4.5-3.8,1.6-1.3,3.6-3.4,5.2-4,5.4-1.5,11.4-1.5,16.7.2,1.9.9,3.1,2.2,4.7,3.3,1,.7,2.1,1.4,2.6,2.3,1.5,1.9,1.2,3.8,1.8,6.4.3,1.6,3.1,3,4.6,4.1,1.9,1.2,4,2.6,5.3,3.9,1.8,1.7,3.8,2.9,5.4,4.6,4.3,2.7,9.4,5.6,14.1,8.2,7.5,3.9,14.2,1.8,20.3-1.5.6-.5,1.3-1,1.8-1.5,0,.6-.1,1.3-.3,1.9-.4,1.7-.8,3.4-1.2,5.3-.2,1.3-.1,2.8-.6,4.2,0,.4-.4.6-.4,1-.8,2.8-.3,6-1.1,8.9-.5,1.3-.7,3-.8,4.6.1,4.1.3,8.1.3,12.2,0,.3,0,.5-.1.8-.9,5.5-2.3,10.8-3.1,16.5-.2.8-.2,1.4-.4,2.2-.2.4-.7,1-.9,1.6-.2,1.4-.2,2.8-.5,4.3-.2,1.4-.5,2.6-1.1,4.1-.9,2.6-1.1,5.5-2.2,8.1-1.8,5.1-3.8,10.2-5.6,15-1.8-.4-3.6-1.4-5.6-1.8-1.4-.4-4.5-.6-5.8,0-3.1,1.4-6.7,6.5-8.1,10.8-1.4,4.1-.5,9.6,2.9,13,2.5,1,5.8,1.2,7.8-.2,3.9-2.6,6.6-8.2,8.9-12.5,0-.4.1-.7.2-1,0-.3.2-.5.3-.8,5.8,2.4,11.7,4.8,17.4,7.3,4.5,2,8.8,3.8,13.1,5.7,7.4,3.2,15.2,6.4,23.5,9l4.9,2.5c2.5,1.2,2,4.9,1.8,6l-16.2,79.3c-.5,2.5-2,5.5-4.9,6.7l-3.1,1.3-2.4-1.2c-2.2-1.1-3.5-3.5-3.5-6.4v-79.3c0-2.3.9-5.2,3.4-6.3l8.6-3.9h-41.6l8.6,3.9c2.3,1,3.2,3.6,3.4,5.9l-16.4,31.3-16.4-31.3c0-1.5.6-4.7,3.2-5.9l8.6-3.9h-41.5l8.6,3.9c3,1.3,3.2,5.2,3.2,6.3v79.3c0,1.4-.3,4.9-3.3,6.4l-7.7,3.8h39.8l-7.7-3.8c-3-1.5-3.3-5-3.3-6.4v-45.1l16.4,31.3,16.4-31.3v45.1c0,2.9-1.3,5.3-3.5,6.4l-7.7,3.8h69.7l-7.7-3.8c-2.5-1.2-2-4.9-1.8-6l3.1-14.8h22.4l3.1,14.7c.2,1.1.7,4.8-1.8,6l-7.7,3.8h100.8l-7.7-3.8c-3-1.5-3.3-5-3.3-6.4v-42c1.4,1.3,2.8,2.7,4.1,4,10.5,9.9,20.3,19.2,20.3,38.1s-1.3,5.3-3.5,6.4l-7.7,3.8h102.4l-7.7-3.8c-3-1.5-3.3-5-3.3-6.4v-42c1.4,1.3,2.8,2.7,4.1,4,10.5,9.9,20.3,19.2,20.3,38.1s-1.3,5.3-3.5,6.4l-7.7,3.8h39.8l-7.7-3.8c-3-1.5-3.3-5-3.3-6.4ZM168.5,187.7c-.9,0-1.8-.2-2.9-.8-.9-1.2-1.3-2.6-.4-4.5,1-4.1,5.1-4.5,8.5-3.6,1.3.6,2.6,1.2,3.9,1.8-2.2,2.4-4.7,7.7-9.2,7.1ZM248.4,263.2l8.3-40.5,8.3,40.5h-16.6ZM333.7,291.9c0,1.4-.3,4.9-3.3,6.4l-4.5,2.3-4.5-2.3c-3-1.5-3.3-5-3.3-6.4v-79.3c0-1.1.2-5,3.2-6.3l4.6-2.1,4.6,2.1c3,1.3,3.2,5.2,3.2,6.3v79.3ZM407.1,291.9c0,1.4-.3,4.9-3.3,6.4l-3.5,1.7-3.5-1.7c-3-1.5-3.3-5-3.3-6.4v-79.3c0-1.1.2-5,3.2-6.3l3.6-1.6,3.6,1.6c3,1.3,3.2,5.2,3.2,6.3v79.3ZM438.5,291.9c0,1.4-.3,4.9-3.3,6.4l-3.5,1.7-3.5-1.7c-3-1.5-3.3-5-3.3-6.4v-79.3c0-1.1.2-5,3.2-6.3l3.6-1.6,3.6,1.6c3,1.3,3.2,5.2,3.2,6.3v79.3Z"/>
  <path class="st0" d="M566.3,283.8v-27.3c0-2.1.7-4,1.8-5.3l3.1-3.4h-35l9.1,3.9c3,1.3,3.3,4.9,3.3,6.3v27.2c-1.2.5-2.7,1-4.4,1-15.5,0-22.7-20.3-22.7-34.1s6.3-34.2,23.4-34.2,10,2.1,13.3,5.8l3,3.4,3.3-27.9-3.8,2.8c-.8.6-1.6.9-2.6.9-1.5,0-3.2-.2-5.2-.5-2.6-.4-5.5-.7-8.6-.7-27.8,0-40.3,29.6-40.3,50.6s12.5,50.4,40.3,50.4,14.5-2.3,20-6.7c.8-.6,1.5-1.4,2.1-2.1.5-.6,1-1.1,1.4-1.4l2.2-1.4-1.8-1.8c-1-1-1.8-3.8-1.8-5.5Z"/>
  <path class="st0" d="M231.8,175.8c1.3-1.2,2.9-2.9,4.5-3.8,1-1.3,3.2-3.9,4.1-5.1,1.8-2.3,3.8-4.2,4.8-6.1-1.2-.3-2-.7-3.1-.6-1.9,2.6-4.2,6.1-7,7.7-.6-7.2,1.2-14,2.2-20.9.9-2.3,1-5.7,1.6-8.5.1-1.2.6-2.2.9-3.4.4-3.5,1-6.9,2-10.2.4-2.5,1.6-4.7,1.8-7.5.4-1.2,1-1.8,0-2.3-1.5.1-2.5,1.2-3.5,2-.7.6-1.8,2.2-2.9,2.2s-1.5-1.5-2.2-1.8c-3.1-1.3-6.2-1.4-10-.6-.9.3-1.7.6-2.6.9-.5.2-1.1.3-1.6.5-.2,0-.4.1-.6.2-.2.1-.4.2-.7.3-.2,0-.4.2-.6.3-.3.1-.5.3-.8.4,0,0,0,0-.1,0,0,0,0,0-.1,0-.2.2-.4.4-.6.6-.4.5-.9.9-1.3,1.3,0,0-.2.2-.2.3,0,0,0,0,0,0-.2.3-.3.5-.4.8-.1.3-.3.5-.5.7-.6,1.2-1.1,2.4-1.5,3.8-.9,2.8-3.7,5.8-4.2,9.2v2.5c-.3,1.2-1.2,2.2-1.5,3.4-.1.9,0,1.8,0,2.6-.4,2.2-.9,4.4-1.2,6.7-.7,5.7-1.3,11.8-.6,17.1,0,.9.4,1.6.6,2.5.3,1.9.9,2.9,1.2,4.2.1.7-.1,1,.1,1.6,1.3,2.6,5.1-.3,6.9-.9.3-.9,1.2-1.3,2-1.6,1.9-2,4.2-3.5,5.8-5.7,1.3-1,2.8-3.5,3.1-3.5-.1,3.4-.4,9.1-.6,12.7,1.8,3.2,4.8-.3,6.7-2.5ZM221.6,166.5c-1.3,1-2.8,2.5-4.8,2.9-1.3-3.8-1.5-7.2-1.9-11.4.3-5.7,1.2-11.1,1.8-16.8,1.5-6.3,2.9-11,5.3-16.5,1.5-3.1,4.8-5,9.5-5s1.8.4,3.2.7c-1.6,5.4-2.9,13.2-4.4,19.6-.1,1.3-.4,2.5-.6,3.8-.4,2.5-1.5,4.8-1.8,7.2-.1.6,0,1.2,0,1.8-.3,1.3-.7,2.5-.9,4.4-.3,1.2-.4,3.5-1,4.4-.4.9-3.5,4.2-4.4,5Z"/>
  <path class="st0" d="M246.1,128.9c1.2,1.9,2.8-.3,3.9-1.2.1-.1.4-.1.7-.3.6-.3.9-1,1.3-1.3.9-.6,1.5-.9,2-1-.3,10.2-2.9,21.2-3.8,30.4q-.1.4-.1.9c-.9,2-1.2,4.2-1.3,6.3-.1.9-.7,1.6-.9,2.5-.1,1.5,0,3.2-.3,4.8-.3.4-.7,1-.9,1.5-.1,1.5-.1,3.1-.3,4.7-.3,1-1,2.2-.7,3.8,1.5,2,3.4,0,4.8-1.3,1.2-1,3.1-2.5,4.2-3.1,2.3-3.2,1.9-8.8,3.2-13.2,1.2-9.4,3.2-20.6,5-29.8,2.2-2.6,4.8-3.5,7.2-5.8,1-.9,1.9-2,2.9-2s1.3,2,1.5,3.5c-.1,5.1-4.1,28.8-4.1,28.8-.1.9-.1,1.9-.3,2.8l-.3,1c-.1,1.9-.3,3.7-.7,5.4-.1.4-.3.9-.4,1.3l-.6,3.4c-.9,2.2-.4,5.8-1.3,7.9,1.9,1.8,3.4-.6,5.1-1.9.3-.3.9-.4,1-.6s.1-.4.3-.6c.1-.1.7-.6,1-.7.1-.3,7.7-7.6,9.1-9.8.9,0,.9-1.2,1.9-1.2.4-1.1,1.3-1.7,2-2.4-.1,2.3-.1,4.7.1,7,.3,1.9,1,3.8,1.6,5.6.3,1.9.4,3.8,1.3,5.1,2.3.3,3.7-1,4.8-2.2,4.5-3.5,9.1-8,12.9-12.3-.6,4.5-.3,9.1-1,13.9-.3,2-.9,3.9-1,5.7,0,2.6-.3,5.1-.4,7.5-.1,1-.4,2.2.6,2.5,1.6.6,3.4-1.9,4.2-2.8,1.3-1.5,2.6-2.3,4.1-3.4,1.2-1.9,6.9-7,8.3-9.1.6-.7,1.8-2.1,2.7-3.4.4.5.8.9,1.1,1.2,2.8,3.2,5.7,3.9,8.3,4.4,3.1.4,4.8-.9,6.3-1.6,1.2-.7,2.5-1,3.1-1.8,1.3-.6,1.6-2.6,2.5-3.5.7-.9,1.8-2.9,3.1-3.7v-.9c2.3-2.2,3.4-5,4.2-8.8-.9-1.9,1-3.5.3-5.7,0-3.9-2.6-7.6-4.8-13.4-2.2-6-4.8-10.2-5.1-15.5l-.3-1.2c.3-1.8,1-5.1,3.2-5.4,5.4-.6,2.6-1,13-.6h1.6c.3-.3,1.5-.7,1.5-1,0-1.8-3.2-.7-5.7-2-2-1-10.5-.6-13.7.4-3.5,2.8-5.6,6.1-8.2,9.8-1.2,2-1,3.9-1,6.1-.3,4.1,3.4,9.8,5.4,14.8,3.7,8.8,5.6,19.3,5.8,21.6.3,1.9.6,1.8-.9,4.5-1.2,1.6-2.9,3.1-4.7,4.1l-3.7,1.3c-3.4,0-7.6-1.5-10.2-5.6-1.3-1.9-2.9-5-3.2-7.6-.3-7.9,3.4-11.8,6.6-14.9.4-.4,1.9-2.6.9-2.6-2.2,0-6.9,5.3-8.6,9.8-.9,2.3-1.6,7.6-.9,10.4.3,1.6,1.5,3.8,2.8,5.6-.3.1-.5.3-.7.4-.4.6-4.4,4.8-4.8,5.6-.9,1-2.2,1.8-3.1,2.3.4-8.3,1.6-17.1,2.2-25.9.6-8.3,2.5-15.3,3.5-23.4.4-3.1,1-6.4,1.6-8.9.1-1.9.7-3.8,1-5.7.1-.9.6-5.6.9-7,.7-5.1,1.3-9.9,2.3-15.6l2-11.3c1.5-3.1,1.7-6.6,2.1-10.5-.2,0-.3,0-.5,0,0-1.3.1-2.6.3-3.8.9-3.1,1.4-7,2.1-10.7.5-2.2,1.3-6.8,1.4-7,0-1.1.9-3.5,1.2-4.8.5-2,1.1-1.9,2.6-2.2,1-.7,2.2-.6,3.6-1.4,2.8-1.7,5-7.1,4.5-10,.5-2.6-.6-4.4-.7-6.9-.5-1.1-.9-2.6-1.5-4.1-1.2-2.9-2-6.6-3.5-9.4-.9-1.5-1.2-2.4-2.4-3.6-.8-.8-1-1-2-1-1.9,2.3-2.5,5.8-3.1,8.8-.9,3.4-.4,7.2-1.1,10.5-.1.4-.4.8-.6,1.2-.4,1.7-.3,3.5-.9,5.1-.6,2.1-1.2,4.2-1.5,6.6-2.2-.9-4.5-1.7-6.3-3.2-1.7-1.4-3.8-3.2-4.7-4.7-.8-1.4,0-3.3-2.1-2.8-.5,5.1,3.9,7.4,7.1,10.6,1.9.8,3,1.7,5.1,2.3,0,.1,0,.3.2.4-1.8,7.7-2.5,14.9-4.6,21.8,0,0,0-.1,0-.2,0,2.5-.4,4.8-1,7.1-.5,4.3-2,8.1-2.4,12.5,0,.5-.2.9-.2,1.4-.3,1.3-.5,2.5-.7,3.8-.8,3.6-1.4,7.2-1.9,10.6,0,0,0,.1,0,.2-.7,4.6-1.5,9.2-2.4,13.4-1.8,1-4.5-.4-6.7.7l-1.5.7c-3.4,2.6-6.7,5.4-9.5,8.2-3.2,3.1-5.4,7-6.7,11.8-.4,1.6-.6,3.7-.9,5.6-.3,1.8-1,3.5-1.5,5.1,0,.6.1,1.3.1,1.9-.4,3.3-.9,6.9-1.3,10.5-.5,0-.9.3-1.3.2-1.3,1.5-2,3.4-4.1,4.1-.6,1.5-2.3,1.6-2.6,3.1-.9,0-.7.9-1.6.9.1-2.2.7-4.1,1-6,0,0,4.7-26.9,5.6-33.7.4-3.5,1-8.8-1.5-11.1-1-.4-3.1-.7-4.1-.3-1.8,1-3.7,2.9-5.4,4.1-3.4,2.8-7.2,6.3-9.8,8.5.3-3.4,1.6-8.2.6-12.3-.6,0-1.6-.3-2.2-.3-5.3,1.8-9.4,6.3-14,9.4-.3,1.3-1.8,1.6-1.9,3.2ZM338.4,36.6c.3-1.8.9-3.9,1.1-5.3.1-.7-.2-1.3-.2-2.1,0-.5.3-1,.3-1.4-.2-1.8.3-4.4,1.2-5.9,1.4,2.2.8,4.6,2.8,6.4,0,.8,0,2,.5,3-.3,1.3,0,2.8-.4,4.7-1.1,2.7-3.2,5.7-6.3,5.7.4-1.9.7-3.3,1-4.9ZM296.8,146.6c.4-4.2,1.5-8.9,2.3-12.6,1-3.4,1.8-6.9,2.9-9.6,1.6-3.7,3.9-5.1,6.4-6.9h.6c1.5-.7,3.9-.9,6,0,0,2.9-.6,4.7-.9,7.6-.7,2.9-.9,5.7-1.5,8.6-.3,1.8-.9,3.4-1,5.1-.6,3.4-.7,6.9-1.2,10.1-.6,3.8-1.5,7.7-2,11.8-.1.7-.9.6-1.3,1-.4.7-.6.9-.9,1.6-2.5,1.9-5,5-7.6,6.3-.6-3.2-2-6.6-2.3-9.9-.3-4.2.1-8.5.4-13.2Z"/>
  <path class="st0" d="M136.6,121.3c-2.8,2.2-5.6,4.1-7.5,6.7-2.9,2.9-4.8,7-6.4,11h-.4c-.9,2.2-1.2,3.9-1.6,6.1-.3,1.2-.7,2.3-.9,3.5-.1,1.3,0,2.9-.1,4.2-.7,3.8.3,7.7.3,11.8,1.9,3.8,1.8,7.6,3.8,11,1.3,1.9,2,4.5,4.5,2.9.7-.6,1.8-1.5,2.8-2.3,1.5-1.2,2.9-2.3,3.9-3.7,1.3-.7,2.3-1.9,3.4-2.9,2.9-2,4.7-5.3,7.3-7.5.9-1.8,2.6-2.5,3.2-4.7-1.9-.3-6.1,4.5-7.6,5.7-1,.7-5.6,4.5-7.2,5.6-3.5-4.4-5-9.2-5.1-15.8,4.4-2.8,8.3-6.3,11.8-9.9,3.5-2.9,5.4-5.8,7.9-10.1.7-.6,1.6-2.3,1.9-3.2,1.6-6.7-.9-12.3-4.1-15.8-.6.1-1.8.7-1.5.7-1.3,1.3-2.8,2.5-4.4,3.5-1.8-.3-2.6,1.8-4.1,3.1ZM142.4,133.6c-.1,3.1-1.5,6.3-3.4,8.5-2.9,3.5-7,6.3-10.1,8.5-.1-3.9.4-10.2,1.6-14.6.7-1.5,1.5-2.8,2.2-4.2.4-.9.6-2,1-2.8.3-.4.7-.9,1-1.3.9-1.3,1.8-2.8,2.8-3.8.1,0,.1-.1.1-.3.3,0,.3.1.4.1,2,2.8,4.5,5.4,4.2,9.9Z"/>
</svg>